<mxfile host="app.diagrams.net" agent="Mozilla/5.0 (Windows NT 10.0; Win64; x64) AppleWebKit/537.36 (KHTML, like Gecko) Chrome/129.0.0.0 Safari/537.36" version="24.7.17">
  <diagram name="Page-1" id="fBuWfhPy13EdwxzA54dP">
    <mxGraphModel dx="2284" dy="746" grid="1" gridSize="10" guides="1" tooltips="1" connect="1" arrows="1" fold="1" page="1" pageScale="1" pageWidth="850" pageHeight="1100" math="0" shadow="0">
      <root>
        <mxCell id="0" />
        <mxCell id="1" parent="0" />
        <mxCell id="9mXArXxCdhET-pIko4T6-66" value="" style="ellipse;shape=cloud;whiteSpace=wrap;html=1;fillColor=#3f3f3f;" vertex="1" parent="1">
          <mxGeometry x="840" y="441.88" width="270" height="238.12" as="geometry" />
        </mxCell>
        <mxCell id="9mXArXxCdhET-pIko4T6-65" value="" style="ellipse;shape=cloud;whiteSpace=wrap;html=1;fillColor=#000000;" vertex="1" parent="1">
          <mxGeometry x="-160" y="450.94" width="230" height="220" as="geometry" />
        </mxCell>
        <mxCell id="9mXArXxCdhET-pIko4T6-21" value="" style="shape=image;verticalLabelPosition=bottom;labelBackgroundColor=default;verticalAlign=top;aspect=fixed;imageAspect=0;image=data:image/png,iVBORw0KGgoAAAANSUhEUgAABBoAAACpCAYAAACFzV6XAAAAAXNSR0IArs4c6QAAAARnQU1BAACxjwv8YQUAAAAJcEhZcwAADsMAAA7DAcdvqGQAAEKESURBVHhe7d3PaxtJHjf+j5+zTw4IrQ26ZWDBZISVQAQLC2HGByUk7PiyCXMJFt8cZnyZOczBxMYJPuSQXDxzGJDJcxiSvXghwfEhM5jvwoADSYxmECyMbwZ7G8HkX/BTVV2Sulutrk+1Sq1W/H6BEktuV9evrq6uqm5NTU9Pn9GEqlQq+icAAAAAAAAAyIP/o/8HAAAAAAAAABgaBhoAAAAAAAAAwJlUAw2zi1/T2toard0u60/yobT0HW1vP6btFdxSAQAAAAAAADAOVgMNU1Nlur22Rl/QH3SkP8uN0nW6VyPyPP0eAAAAAAAAADJnNdDw6T9vEr18SD/83Naf5MUcLd27RrT3E+1ioAEAAAAAAABgbKwGGprPH9DzZv6+pKK09CXVii3a3TnRnwAAAAAAAADAOHwED4Os0K1agZqNp3SgPwEAAAAAAACA8Zj4gYbqyh0qN5/RFkYZAAAAAAAAAMZusgcaqnepXm5RY+u9/gAAAAAAAAAAxmlqenra+qEL8tsn/nn/Jl08ekkPnjf1p9n7+v/+/1RP+IZNb+8JreK5DQAAAAAAAACZmeiBhkqlon/qqa48pjo9o2WscgAAAAAAAADInNVAw+zi11S/OqPfBXx4Q40ffqbTs2y/kQIDDQAAAAAAAAD5kmpFQ17EDTQAAAAAAAAAwPh8BF9vCQAAAAAAAAB5gYEGAAAAAAAAAHAGAw0AAAAAAAAA4AwGGgAAAAAAAADAGQw0AAAAAAAAAIAzGGgAAAAAAAAAAGcw0AAAAAAAAAAAzpzbgYbqymPaXqnod/3vAQAAAAAAAMDe1PT09Jn+maV8e41uXtRv6AO9afxAr0+tgnCmUkk/MCAHFur0jJa33se+H1r1Lm3X5/UbombjW9o60G8yptJW1m+oTXsbj2jnWL/VwtsI3j5trL6izmalpe9ovVbQ7zriw+Lqhtnsz3dTfKQ0cY4rh+h24ywrbpw5+cPBSbt9WfTXC266TGzD6W4fU8c4TOmSXOWhfTjDHX9ZcRlnY3lG2l1v7wmt7pzodz5XZeESt55yt0tiCoOTP7nDKHcOdl0deH6v0Mr2HQpmX9c489FR/tiEk1jPuOEMzGcLjtLOqRvD15/+tkcaVfsTt6+4eEe3SxsfTjgu2+fudkO0l67qDyccF/Wny7SNIT5xdSNtuecRp25w64+TeiYkhWM6LqzKi1F/kuJitS/BaqBhdvFrql/4lR48b/beX6WxDTbkc6BhjpY2v6FasUWN5ac07mNSVYjZX7rp8isIhRowlfZisNLqNHi9/FB/t9By11EqXafNdVHRvQIVA/uROPHhbNNHHVyF5LSreF0jLy8NKifOnLTH4KSdsy9OHesTk65UksJJqGMcqY6dlHnICSdVPo+Zuzj7F3DFvX3yateoHHdCj9YFnYcU6EC5Kgt3GOnqGLI+c/bFyZ/cYZQ7B6+u6vywOr+POQ8d5Y9VOEl1lRVOmnyOkWHdGFn9iabBIRVHQ7/OVXvICcdd+2zRribJ8NhxV38Y26RJ1wjrYbY4dSPL87KWEE6q83JseXHqT4pjx1A3rG6dOH39fXeQQfpf6w/6QDN0ITywcb5VF6lGokIMc3J06HjnUaiSHL9tkUcFmp3TH4iKN1sU/3mersDSCb09bBMVi1TSn7glKvs92aj9RLue/qiLE5+UcT74nZrBtIsD+0aZqLnbOXiF41f0416bypdzchtNNM6uyouVdt6+zHUsRl+6UhoYTlId4zGmy1UeMuthqnweM1dxrq7cIRIdydWdQYUpyvvGPHmivLsnOp2HxdoiVdUH7srCFXO6Ooavz5w8dNK2ZIpT7jysuprm/C7/ptimvRe9sLPjKn9swkmqq8xwnPSjsq0bI6s/rs6VabhqDzM+V/Lb1STZHjvO6o9xm5TpGmc9dIhTN7I8L/uSwkl5Xo4rL0b9SXXsGOrGR/GMBjnyt739uO+1Ejxi5IhL4HehJSgB4bDuWp2MpOplcQAfNgMVIu9OaGe3RVS+03tGhcgruSwm1Jg7VFr6Uo2o7caOnHLiky7OpaXPqOzt04vQEdam00g0jk/FAVy+ZF32o9AfZ5flZUr76OpGfFnYGxROch1zyVUe5rsejtvBlmH2rFSmBXExd/g2kImiU3pP5DPJE6A6G+evLIzp0lzUZ/O+Rne8jwyr3N2xP7/7nXpq/tLr1GfJVf5YhJNYV5nhOOlHZVw3ONKky9W5Mj1X7WF250puu5poDMeOCaf+GLdJGZ/x10M3OHUjy/OyNPw1Ub+48uLUnzTHjqluDDXQ8Jf5T2iGPtCf4hgfF395UZsay9/Ssnw1RIEIwftF1OBBnXrbiFejtzCjRxSkWrqktnlCe9481TsFy+KPPHmnRVoJDGqkGbAYldKVeSpGG+qDpyK9z6gpK7KMr86rvspWvEbrgXSFBnLYKnRLHiCNhBFZTnyYcQ4OHKllaD8GDszjJh16BardCpSxaHA3A/cujUNinCVueSXhpj3FvmLrmGBMF5M5HEYdS6EvXa7yMGU9HJTPeTayOM8VRLg9cqnh9vo8HTb2w7NCIyqL0RpNfY7lom3JErfcU+ivqynO73IGSXTqx7OaQXCVP+xwDHWVFY6jflSmdaPfMPXH1bmSJalf56o9HPO5MpXMj52wdPWHsY1FfDKthxPH1XnZ0TWRkFxejtpVzaZupB5omCrfpvrVGfrw5t9jexikNDdbIGr+3iugg9e054m2s3u0WFSG0L0onVEkm1HboirIcv0SvROVoDeoMU/1zevjX3qqR8FCS6Yk2VCre3Ke9OIrKk/whKOWdQXSJAd0yvXHtLlkd7aWy3LkPT+JHVdGfFjbCKF4b7RoYT0YZ1HGq4GDV77uEe3ujXHkTEiOs8BMezJm2m33NaiOCcZ0MZnCYdUxW7HpcpWHKephQj7nVhZxnpN5/dh/3s7yI+qbIBhFWYzYSOrzIE7aFpfk/aK6HDqvuHOpqdxtxdZV2/N7FqsZMs4fQzjsupoYjuN+VCZ1I2LI+uPqXGkS2o989fXrXLWHYzxXDiujYyckdf2xOHYY8cmqHrrDbA8dcHVednZNJCSXl9t21aZupBpokIMM9+VXTxy9pO9fn+pPx+MkuoRLzSDIURt91JSKInuHUbBeYhcd1Dh4sU9ecZ6ujKK2c4mGSz1lVFTo8MNe/HuDioHP5dIZueKjXE8Y6Tp4qrYpyprLJeJQL7eoEbgPrR8nPinj3LkPbaEcOKje01bgoFtefSVOZUJw8Gqc+uKcMu2xTGm33NfAOhYjtixSiIbDqmOWEtPlKg8t6qFNPufFqON80lazMTWxj8MNkX+h8u/MCo2gLEZtFPV5IJdtiyuRstDl0e17s8rdkqGuss/veonyaFczZJQ/nHA4ddUiPkP3o8ZQNxRX9afD1bmSI7Zf56o9NIWTs/Y5y2MnyEH9SdwmbbqyrIepGdpDVzhtHQcrnJTn5QHlNXS7GsdQN6wHGqZmF+krPcgQfDDkePmjO2r0Shw8oa/ZOPbEQTUMceCxa6lHp6HVFFpkqVLm5GiYbrjCjYrkj3J5MuIBB+/8W1AG85fh2JD3B4XKSrzUszL06LQ/GsaJT9o4i1jLFTChh6pE6RUw74ZsQBwKxzl92s2iabfYV2Idi2cuC55gOLw6ZsE6XUPkYciAepgin8cuizjrdj46y6iWn3oteqs+c1wWGXBenxONsm0ZEVa5W0isq3bn9+ot0TlMEweXXOUPIxxWXWXFx1E/KtO6oTmsP0GuzpVmnH6dq/ZwxOfKYWV47HQNXX8Y2wyRruzqYb65Oi+7uyaKFy4vR+3qAEl1w2qgQQ0y1K/STG4GGeboyoJoYBrhEazwEpT39E6O/NzoLA2Zo6VNXZiJKrQiDnhv77XFKOmJut2iWPuSlrrDOmJ/Y30YlGi41v3RsPiTo658oafN6jh7bX+kOIb/8JL42Rp1z1fMwSZH4YLlJF9yVE41quJnf7SOE590cfZHDxNmmGRebWe4TJmjL852aR9UFn1i087cl7GOxTCVBVckHF4d60nMH9t0DZOHQYPqYZp8HjeLOLPraqz39EKOqAfbXrFv+YCr3gOTHJZFRpzWZ6OU7epYccq9Z7jj3eL8LsLqezr+WLjKH3M4vLrKiY+rflSWdUMwbpMyXa7OlQxJ/TpFpjGhPWS3P7Hh5K19zu7YUWRahq4/nG3s0tWVYT3MO1fnZXfXRDH6ystVuxrDUDempqenWQ9YmJqapc+/qtPVGf1ByBG9fPgvap5l+6yGSqWiEqiWGUWFDlb/e0E7Ywve3hP6kb6M+c7agvq5I7QywkI0LLm/aMXLhqhE6jtT9duQFvW+RzVmu0hjJw+U0OCMtx/4Ttew7rYDG8weta28Ryy0nTk+qeIcSrMvXFbiQBnzdwRz4szLH19SWfDSbtpXzO+7enHnpcssTTjqb/rqmG9w/vDS5SYPOeHw4pMvdnHm19WASDsU3a6/DXdRFu5w0xWUrj5z92XOnzwyl7tv2ONdiu6r//yuw5JfIzaKZbspDJ8/Pm44HYPqKicccz7zDJ92Tt1wV3+68egaXfvet6+Ydicc3+T2MKn+8MIxtz+ccKJ53JXQrg4SDWs0x47L9ifdNtF0ZVkPsxRNd1egbnC2iVL5leK8HBUfjvm44JaXqW5w0m5bN9gDDXlUqfx/agBBfudn6MDXI4PegAYBAAAAAAAAAEZjqK+3HLsBD3pU9xpRyof9AAAAAAAAAEBqE76iYdCtEx/HEh8AAAAAAACASTP5Aw0AAAAAAAAAkBuTfesEAAAAAAAAAOQKBhoAAAAAAAAAwBkMNAAAAAAAAACAMxhoAAAAAAAAAABnMNAAAAAAAAAAAM5YfevE7OLXVL86o9/5jl4+pOfN8XxxRe9bJ+ZoafMbqhX1W6HZ+Ja28vz9lpGv5fT2ntDqzol+Z4EZTmnpO1qvFUTGPKPlrff6U1/3dwFx+RfdLrxNhVa271BZvwvx9mlj9RUds7YJiKQtGqfk+MSni6hNexuPaCe0I8GwrzxKKlMbpnCqK4+pHiw0RlnF1cNwOAPKQeCki5v2pO048WGlXZq0+sNsN4w44SRu467d6JZ1SH+5cuuhlFR/ovuLK3Nu/eHW59zIqP7ElemgY8uUh6Zy5+7Lpv4AAACcZ0N9veVU+Tbdv3mB3jR+oNen2Q82+AMNuhMa6VxUV+4SbT2lXPb1Veeq0OuglK7T5vo1ItvOGiscP3+Ke/vk1a715VOsaLjyI9m5KgY6yXpfXuIFlR4A8pL2GbdNZ+CoRY3l+DLkxEd1HBdasR37HvO+8idFmcYyh9OXz3HlxaiHqixmf+n+jd+pF5uEOumcdFmkXcVDXMR4BSpG6iAnPqy0T2L9ybL9SbWvuHyO6t+Gc7zz6qGWUH847Q+v/rg6ljOUZf2Jiv6NYs5Dq3LviNlXqnAAAADOqeFunfjtv3REM3QhPAmQqerKHSrLWaJIx+Igr4MMsrN5Y568vZ96HZPjV/TjXpuKtUWq6o/MeOHI/CHR+V3d8fQnDAe/U5MKNDun34sO4I0yUXM30IHX+ypf7qwqiVFdFBdgbdp7kdBxjttGfkaiTAdduKWNTxzTvnIoVZnGMIczR7NylZDnBS7cTujtYZuoWKSSes+rh8c7j0Kd/+O3LfKCdUzgpIufdhGve/Ki5SfajdnUHB9O2oWJqz9Ztj8p95W23WDg1ENfQv1htT+8+uPqWM5OlvUnRvTcJHDykF/uATH7ShUOAADAOTXUQMNfPv8bXfzwhv7zm/4gcxW6LDp83mEz0JnLuVKZFkQH+fBtYMZGdFzvqSWbosPSvYIxYIZzsJW04iBeaekzNXjzIvR3bTqNTDIdn4pOc/nSgE6h35Gk5i+9jmSf+G2ql0UH1FimtvGJx9tXvqQp0zjmcE5oZ7cl8vQOba/oC6jqXZLLi7sXWa7qs8BJFzftpaUv1SqDXZsZ1hBG2uVHk1Z/smx/Uu0rfbvhkrn+mNofXv1xdSxnJsv6EyPu3DSqPIw/DwIAAACX9UCDfE7D2tqaetWvEr359890ejaeZzRQqUhq0ija48uzuYKKc4dcXru9Pk+HjX27mRFX4WhyCej2tghDvNRS0B+Ds3VNOvQKVLsVWC0gOoWbgXtr+6SelfRnAr3TIq3o+Pivu70BBJv4FK/ReiCcldAoBGNf593BU1pefkZNecEk86ZO1FgOdOxT1sPSlXnxd/0Xa25U6Ja8oGvwVxnExseU9kmsP1m2P2n2NexqhsTjvV98PTTUH277Y6w/EyjL+qMlnptSGtT+2O5rtO0YAADAZLMeaDh9/T09ePBAvR42/qBP6vfp68VZ/Vvw7xf1Oyrd1+b13lLrjjnRMRW/q9Mz0Rl9RKknXh2Fo5aEik6wem20aGH9MW0udXp7J7SzGugwy9c9ot29tv591DCzkkV18VauX6J3nfiIV6M5T/VuPvLiE0qTfDVaItxgujj7OufkBZS6//lJL29EfvddwNnUQz2zG1o27ZBcSi3v02Zf0A2KjzHtE1x/smx/2PsabjWD+XiPGFDu5vrDbA+5x06u5O/8lXxuSiGh/bHa14jbMQAAgEk31K0TZ6ev6d9vPtDMJ/M0OzWlPz3v3tNWp6PSeQUfTnbSVjM2tfo8HW6I3wXu94xbjjuQq3DidO6VXSgHOpiRdIk0qV00f++f9dPLYhNnJQ3bRGcTD17sk1ecpyvdCFnEp+Pgqejsi8tDeXUYYN7XeSUu6u5do6K46Oo8nE0uU5Z5WK7rWXvbeig65+op84EwnRLh18staoTikWBgfBhp1yaq/mTZ/tjuy0G7ETLgeFcGlTu7/pjaH379yZecn79iz00WbNqfpH3ZhAMAAHBODfcwSKFwYYboT9ExGMftE2oJq+i43Zig2edjT3SwqG8WRC3B9Fr0ljsz4iqcAeZmCyLw4IPMovTy4nf9HfLqLdHBNsRh8DYenYqEFaNrcCNLbfsNjk+PfkBbV9p9nRf+jL0nMyng4F1L/yTY1MPO8nLROQ9fWLgjn5lA5M8cd2Zk1VfR6dnn0OxkYnwYaZ/E+pNl+2O5r+HajTjR411LKHer+hMSbX849WcCZVl/BjCfmwZI0f7E7iuDdgwAAOBjMNRAg/x6y5sXP9CbsT0NUj9wS96X23nglia/3jKfs0bv6YWcJal9SUud0RHRcZEPwQo9xVxT967GdnDtwrGiZvUSZg1lR2t7wPJi8bu+J7JHJW7jl2koXXJ2MGlJdVJ8AvwHvAXTlWJfE2Zw/eHQF9Khp8Dr/PHa/gwutx7KMlr3Z3hH2TmXs8ah2VjxkrPI6qJA/NydfTTGh5P2Saw/WbY/FvsSnw/XbvTrP94FEUZSubPrT5AMs6/94dSfSZRl/YlhOjcNYij3WHH7ShMOAADAOTU1PT3NXopQvr1GNy/qN8oRvXz4L2qO6WGQlUpncMH/Hm058dTRbOT7oVv+92/LJ2z7BsVXdtTUjNqAjo0pnOjvu+RXguolsd19dLWoEfm6vnA4ovMV+73hoiMtvydeft1fcLltCGeb/nh7ke9W58SnL12BNAeZ9pU3nDLtSKo/vHB0eQVnhhlhhethTBhdvbrGiY9N2jtUHsh7wLtx5sUnbdrzXn+k5PLqGbb9kczbcNoE8zbm451b7mH99SeaJkN7mFB/onnTlVCf8yCr+tNXpsZzU0A3D3nlbt5XuvoDAABwXlkNNORNb6ABAAAAAAAAAPJg6Gc0AAAAAAAAAAB0YKABAAAAAAAAAJzBQAMAAAAAAAAAOIOBBgAAAAAAAABwBgMNAAAAAAAAAOAMBhoAAAAAAAAAwBkMNAAAAAAAAACAMxhoAAAAAAAAAABnpqanp8/0z1ZmF7+m+tUZoqOX9OB5U3+arUql4v9QvUvb9Xn/Z6n5jJa33us3ORWJs7f3hFZ3TvQ7C5xwGNtUVx5TvazfUJv2Nh7RzrF+K5SWvqP1WkG/8zUb39LWgX4T0N02phy44US3i9smHGfB26eN1VcUiLYvkv7E/U1C3ZGyrD+CKX845aUwyiJpG279USzDidZ78zYVWtm+Q8Eq2DWoLuZFlvWHsY2p/ekw1UMlodw7jOEkxplf7snpQv2Rhi1TzrEsuTxfSKx4AwAAnGOpBhqmZhfpq/onRB9maObP8Q40+Cf7NjWWn5LfF9Cdtzyf/FVHptDrCJWu0+b6NSLbzhonHMY2Kg9nf+nml5+nYpNIRy0kGq7i531xb5+82jVeGcSEozqExUAnUMfZC3T4+rahOVra/IZqXnCf+rNiK1A/olLEedyyrD+M/OGUF68sONtExNZDcziqji+0Ei/mONv0i6uHOZNl/WFsw2t/OMepo+M9Vf70lzsvXVHnqP44KlPOcerufKGpNM8TeQUq5rmsAAAAxsj61ompqVn6/IurRG/+Tb/+qT8cF3Gyv1crULMR7BS8p60N0XEpf0ZLJf1RrojOzI158vZ+6nU2j1/Rj3ttKtYWqao/MuOEw9vX8c6jUEfp+G2LPCrQ7Jz+IM7B79SMbFNduUMkLi5Xdzz9CUM0HFGmN8pEzd1Ap1HHuXxZr2AR6Zotiv88L9CxPKG3h22iYpG6xV5dpBqJzmVCpzFVnMcqy/rDyB9WeQmMsmBtExVTD1OF44rcd7FNey/yeuExme0P6zh1crynzJ+Yck/Vrp6b+uOuTM3cnS98Ig/uyYGVn2h3Uk4bAAAAY2A90PCXz7+gqzNH9OvP/9OfjNFcgYrUonfRXsGxpzp0C1eSenRjUirTguhIHr4NzPzoAROSnVDu4AgnHFf7ilFa+ozK3j69COT9wVb8EtMkceHIZa+nkYmx41PRKSxf0h3ZE9rZbYn3d2h7pXf7jFzGGrzgrV4WHeLDZqBz2S9NnMcqy/oj8PLHVF68suBsExVXf9KE44Z/EUbNX3oXYXkzoe0Ppx46Od5TxdlVuZ+j+iO4KlMzd+cLqbT0pVr1sGu1egMAAOD8sRpomJoq09+vztDRy39R8yzVox2cKs2Kzo3XFt2IKI9O8zrToAZHeuSSzu31eTps7Jtnu4I44aTcV+nKvPi7/otHuUR1e1uEIV5qCfCPgVlsC4nhHDfp0CtQ7VZgNlx0ZDcD98wqB09pefkZNWXnUYZVJ2osBzuu/iyWd1qkFb0v/3XXatYtd7KsPxys8uKUBb+8kuuhRbkXr9F6YJuVuIrB2aYj97PRwgS3P8kcHe9p4swsd2O6zlP9YXF4LDs7X1TolhygCK2iBAAAgDhWAw2f/vMmXTx6Sc+b4x9kmHhz4mJMdGTq9Ex0gB5R6skRTjg2+9IzPaGlsZpaCiw6Z+q10aKF9ce0uWTfs0wO54R2VgMdQvm6R7S719a/1+TFrLq/94kKp9Gcp7rYttfBLKqOY7l+id519tXZbvN6b7ls7sj7loMdXfGKi2+W9ScRp7w4ZcEvr+T6wwsnFIZ8NVrib8L1mbNNzwTMRgdNYPuTzPHxzo4zs9yN6cpL/cm4/Unk7lh2db6Qt3vIZ0mYVmIAAACAxUDDVPk23bx4RC//9Zv+JCeKBdFFi/I7DZ7dlFg2Ttpq5qdWn6fDDdGZCT1EymIWjxOO7b5EZ1g9bVt0pIwP9ercl7tQtu/EB8WG8562Ap295dVX/qqV5u96Fkl0yu9do2IgnnIZbqMpO4rhGajozNPBi33yivN0ZahIj1Ik7Tr93WuPLOsPm6m8fJyysC6vAfXQOpyDp6r+FGXDMUjSNnpJea5no6WPpf0ZYOjj3TbOnHLnpCs39Sej9sfC8Meyo/OFKMd6uUWNUJoBAABgEPZAw6d/vSj+vUg379+ntbU19bqpPrqpfv56cVZtlyX/4VrzdDm8tlF0CC5ReUSdnqGp50dQ38yWWlbrtegtdzaLE47NvjrL3UVnLNx5HGxO3boSfMBWOuZw9HLVd514dQaSwvfHHLxr6Z8k//aZYnQtb2Tp78TJsv6kFi0vTlmkL69w/Ukbjr90Otngbaq3xIXM0PmWgY+o/QlzdLxb5o+x3JnpOnf1h8XVsezmfCGf4UCivyFXQnRWe6ivy9SrueJXOgEAAJxf7IGG5vMH9OBB+PXySPzi6KX6+fvXp/6GWTp+Rbt9sxIVWhEdu2hHKD/e0ws5A1v7svetGKIzKh+mFXpyv6bugY3txHDCYe5LdobX/Rkfdidfze44mIEzhSPjth1drqo7haGnnOulx91ndvgPAAulvbPNpCxvj5Vl/Ukhtrw4ZZGyvPrqT7pw/Ae8JdfngduINPd980ZufSTtTx9Xx7tF/ojPE8udmy5TOLniqv5wuDqW3Zwv5CqI0EoP8ZKrItQgkvg57SocAACAj9XU9PR06gculG+v0U16SQ+ey7Nt9ioV/wF0sjOjZha0ZsP8NOtx879TXT6p2zcozt20DeiscsJJ3kZ0ptR3h+u3Ib3vE4/mcfB3HdH9dHn73e8vtw9HdBhjv3c+Jt4xeRSNkxf5rndOnPMouUx7hq0/nPwJbzOovPrDipaFZNqGU38k63BiypuzTbceyq/Fy3F9iYrmT97bn2gYXZEyMZV72nD602Uqd166znP9cVWmVsfpkOeLKLVv+ZyKmGMDAADgvBtqoGHcOgMNAAAAAAAAAJAPVt86AQAAAAAAAACQBAMNAAAAAAAAAOAMBhoAAAAAAAAAwBkMNAAAAAAAAACAMxhoAAAAAAAAAABnMNAAAAAAAAAAAM5goAEAAAAAAAAAnMFAAwAAAAAAAAA4MzU9PX2mfzaaXfya6ldn9LuOD/Sm8QO9PmUH40zlH2u0uX6NvMa3tHWgP5Sqd2m7XqC9jUe0c6w/yxsVx3n9hsjbe0KrOyf6HV9p6TtarxX0O6JmNC+07nbNZ7S89V5/2i9pO+6+omnr246R9urKY6qX9Rtqx5ZleBvB26eN1VfUV+SG+LDDyRlumcar0Mr2HQomuyuSfk7+mOpG9Pe++HLlpGu4bdKmPT6+E8lR+8MKx7BNXN2Ia1ui2w1Tx5LaBE44WW6TSxnWn2gexdUNUxtlm8/d7WPal0k9XwAAAGTNfqDhkz+o8cPPdHqW/cBC1MQONETjV7qu0kGWnTXV4SkGOjk6nHB++BdVxb198mrXqJx0Uar+XnT6vAIVvfB2vH3N0dLmN1Qrtqix/JQifUEfI+2qkzf7S3f/fqdPbBIoz774dPYdirc5Prxw8saiTK30p52TP5y6ocpwoRUIJw4nXa62iepPF6ceTiRH7Q8rnDT7iv6N/MhZHTO3CZxwstwmdzKsP5xy57RRVvms9sE8D8bsCwAAAHy4dSJzomNyY568vZ+6nWg6fkU/7rWpWFukqv7ISHSGbpSJmruBjpMOp3y5oj+QHaM7RKJTtrrj6U8GEfG6Jzt5P9FudFPmvqi6SDUSnbBBgwzMtB/vPAp12o7ftsijAs3O6Q9EOLNF8Z/nBTqNJ/T2sE1ULFJJf8KJDyucnOGXqSWZX8U27b3o5D0jf7h1g4GTLlfb9OlLO6ceTiJH7Q8rnJT7OvidmsF8dljHzG0CJMuw/rDK3XUbLuI16DzofF8AAAAfNww0ZK1UpgVxQXP4NjDzIzpU99SyTtG5tuqttOk0MoF0fCo6PeVL3Q7fwVZwxcFgpaUv1Szf7sAZKfO+qpdFx/GwGeiERThL+wnt7LbEvu/Q9orucFbvqqWuwU6pMT7McPKGW6Z2/I4/NX/pdfzZ+WOuGxycdLnaJiwu7R8pV8cgJ5yU+yotfUZlb59ehMrQTR0ztwmQKMv6o5jK3W0bnnwenMzzBQAAwLjYDzTMXKX6/fu0tramXrfLU/oX41OuP6bt7cArcM9n7swVSE6KdMilmNvr83TY2LebLT1u0qFXoNot3eGRREdtM1XaK3RLdpYaA2b5WPvyZ3u80yKtBMti+27vQiBl2ktX5sXfRTqcB09pefkZNWWnT5U5UWM5eIHJiI9kDOeciJnRV0z5Y1MPi9doPVAWKzZXiKM0KO0RsfVw0rhqfzjhWOxLLm3v1At1e8qPgQs3Z3WM2SZInLqa5TZ5kWX94ZY7tw035rPhPCjhfAEAAMBmNdBw+vp7evDgQff18OURXbx5n75enNVbjId8ONSyONl3X42W/k2OzYkOk+io1OmZiPMjsrm11XdCO6uBDo983SPa3Wvr3/PJpebyPvbBnSXOvoqqE1+uX6J3gbJoNOepvnk9vKzUJu16xii0xFaSHU51H/6T3n5EmL3OIzM+xnDOg4QZfWP+8Oqhug0hUA7yGJUDhJtL3CuTUWGuZhhUDyfV0O2PxgmHsU2ofmy0aGE9WDdc1TFem8Cpq1luk0uZ1B/mOY7RhnPy2XweFHC+AAAAYBvq1omz5nN6eUQ0c0EudwSWk7aasanV5+lwQ3R4Qg+Qsp0tfU9bwc7T6ivRNROav/PvPxYXUPVyixrGB1nx9hWdDTp4sU9ecZ6uyF68bdpF3NTqFNH5Cz9kzL+Pthj4XC6XbzTlRUR4djIxPhbhfNT0Mub+GX1u/qSohwdPVThFeeU3TgPTHjCwHk4gV+0PJ5y0++rcq79QDgxQuqtjyW1CDE5dzXKbccqy/iimck/ZhkfzmXUexPkCAADAxlADDVNTs1S4oN8Az7EnOljUNzOqlmV7LXo71GypXvr5LqmzFCbvWSbyZ2U6s0bqq7v0LNLgmbXovjw6FQkrRtfOBpfI2qRdzhyJTmj81xf6M5Oe3GHAwbvgShZGfFjhfPyqt0TnObbupc0fTj3UD1Ybs8Fp1xLr4QRy1f5wwhliX3OzBfGHwYfuRaWpY5w2IQ6nrma5zRhlWX9iRcs9bRsVzmfeeRDnCwAAABtDDTT85fMv6OrMB3rzn9/0J2D2nl7I2bral7TUmUETFzPyIVhxD5RS964mXvBrekmncelnhJyR6c4W6ZecoVEXVuLn2Bnc2H2dqAdlhdIlOnPhZenMtMvw1/2Zo/iLO33BEHrKud6X1/ZnvFjx4YQz2Yz1R+R135Pdu1LkD7Me+g9dMz8XYaQS0y4Y6+EkctX+cMKx21eXml1OqBuyXFLVMU6b0I9TV7PcZryyrD8RseWerg2P5jPvPPjxny8AAABcmpqenj7TPxuVb6/RzYv6jfThDTV++JlOz9hBOFX5x1rfd2oraqlz+HvY80Z9r7foVHXI50zEdZplR03NrMRc7ITDEJ2mmPRG99PlBb8LPEztU94zG9gfZ19SdH/eXv93qyenXXTc1Pfc67chwe++j9nOmEdx8eGFkyc2ZZpUf7ppl1/3N6AucPKHUze68eiIiSsnXa62Mac9Jt1dwXo4maJ5lKb9kTjhmLbpqxsx+RsOI30dk6LxibYJnHCy3CaPsqo/nHLntFFp8ln9TeQ8yNkXAAAA+KwGGvKmUgk8jRoAAAAAAAAAxm6oWycAAAAAAAAAAIIw0AAAAAAAAAAAzmCgAQAAAAAAAACcwUADAAAAAAAAADiDgQYAAAAAAAAAcAYDDQAAAAAAAADgDAYaAAAAAAAAAMAZDDQAAAAAAAAAgDNT09PTZ/pntqnybbp/86J+R3T08iE9b1oHM7TKP9Zoc/0aeY1vaetAfyhV79J2vUB7G49o51h/ljcqjvP6DZG394RWd070O77S0ne0Xivod0TNSF5Ef+9r9+WNKZyO7nbNZ7S89V5/GsBIV/K+KrSyfYfK+l2It08bq68oWKSD48MLJy5/BqU9b4xlkcgun6Plmqp+MOv8sGUqRcs1TR2Lqxtxx440XFmMgaP2J8sylUz5XF15TPVgYDFhhLeJL09OOB2D4hRXfwa2LczjKzcyrD/RfIzLG1N5xZXFoLKXkuqZTd0AAAA4z6wGGqamZunzr+p0deaIXj78FzXPsh9cCJrYgYZo/ErXVTrIsrOmOjzFQCdHhxPMD9VhWmgldoQ44XQuCIp7++TVrlE5rqPPSBdvX1FztLT5DdW84D4Z8ekTF05E3uuOkibtHHH5oz8rtqix/JQGFpGkylJcNHgFKkbzmFXn3ZSpqzrGOXZGVxYj5Kj9ybJMOeH0lfugMp39Jfy+JqIcON454XQl1fmo2LZFh805vvIiw/rDOZbZ5W48lrWEMrWqGwAAAOec3a0Tn/6drtIbauRgkGFyiY7JjXny9n7qdTaPX9GPe20q1hapqj8yEp2hG2Wi5m6g46TDKV+u6A8YmOFUV+4Qic7d6o6nP4lipCttnKuLoiPepr0XwQ6fKT4xYsLpc/A7NalAs3P6fQ6lSjtHXP7Iz0h0rI0XQaL878mLhJ9oty9avDrvpEwd1jGOkZXFyDhqf7IsU8EczhzNFsV/ntcrdzqht4dtomKRSvqT451HoQvC47ct8kLHOy8cX1KdjxHXtrCPr7zIsP6wjmWb8uJIKlPX+wIAAPi4WQ00fPrXi/ThjxadYpAhvVKZFkQn+vBtYOZHdKjuqWWdohNq1Vtp02lkAun4VHR6ypcsOnySOZyDraTZYIGdLts4+x1Sav7S65AKxvj0iQ8nqrT0GZW9fXqR416/fdo54vOnellcDBw2Ax3reKWlL8XFYYt242Y0mXXDXZm6qWMcoymLEXLV/mRcpuZwTmhntyXK+A5tr+iL0Opdtfw9dKFqxA8nsc7HiGtbuMdXbmRcf8zHsqty9yWXqdt9AQAAfOzYAw3ytonCBaI/2wW6vbZGa93XbSpPTemtxqNcf0zb24FX4J7P3JkrkJwU6ZBLMbfX5+mwsR+ZWTM4btKhV6Darc7MjiA6aptxaS9eo/VA/qwEr7ZswknCSVeafaWcae6TEI5cVtvJG7WM+sdz2GmMzR9/Bs87LdJKoP5sb9+NXLBX6JbsbDcGzMq6qvNRcXF2XceSjp1J5KossixTroOntLz8jJryQlCWV52osZw8QFG6Mi/SEbmYZYVjqPNactvCPb5yJMv6wz2WueVuPJYZZZqijgEAAJxXFisaCnRhhujizb/Sfx8+pAcPHqjXy6OLdPOrz2l2jIMN8uFQy+Jk3301Wvo34yDvJe51ZtRr83r/sso50WESv6vTMxHnR2Rza6vvhHZWAx0e+bpHtLvX1r/3qaXCkbyRAzObS50eIS8ctsR02e4r/UxzWHI4oTzaaNHCejB/zoNB+VNUF0Ll+iV6F6hDjeY81QN1Wi5rl/fMGzvbQ9f5oEFxdlfHzMfOBHNVFpmUKZO8CFXPcXiiykvVUxG3gYNDejY6tHxfYoTDrfPJbQvv+MqlTOoP81hmlBfnWGaVqW0dAwAAOMesv97y6GX4+Qy//ecNfZj5hOb/oj84997TVrBDI1/BB1CdtNWMTa0+T4cb4nehB0j1LxNNFtmX2I/68+bviTMyjabo4qqbTTtShBPFTpfFvvTy2lSzm0E24XTuE14on597bg35E53hO3ixT15xnq7IDBIXa/VyixpJD0JzWue1xDiPqI7FHjsTxlVZZF6mJnPq3vqiuFDsPEhQ3m4hy6tcj1khIOqtWvkW2N7HCIdT5+MMaFsSj6+8ybz+mI5ly3LviB7LrDJNuS8AAIBzymKgoU1/fiC6UIiMKBQu0Iz+ERiOPdHBor5ZNLWE12vR2zQzeV166ee75M6S+TqJE05E6nQN3lf1lujUDZ0n9uHMzRYiD/z6uA3OH49ORaEWo+uhA8ue5T3mRP6sXmfWUX31m56FVDOGI6jzdmXqqo5xjp2cc1UWYy/TKH91gCcrbMDBu5jVbZ3l9+KCMXyBK5nDYdX5AcJti/n4yp2x15/osWxR7iHhY5lXpmn3BQAAcD6xBxrOzk7p51+PaObqF7Q4698mob7u8m8XiY5+pdeneEAkz3t6IWe1al/SUmfGSnR85UOw4h4ope5dNXReFb2k07T003/YVcKsITOcfnbpUpL2JX7X98TxNGzDUTNbaWdV88dYfxLz50Q9/CxUpnJWL7C8Xc7odWcb9UvO8KmLOPGzP/OXom4ksSlTsa2rOmY8diaCq/ZnjGUaS1+0h775QNdVr+3PgkuyPqxfU7PS/YMMkjkcXp2P0de2mI+v/Blj/ZFl13csM8s9Inos88o03b4AAADOq6np6WmrEYLZxa+pfrW3huHDmwZ9//pUv8tW5R9rfd+prahlsdHvK88X//vb5RO2ffI5E3EX9rKjpmZWYjrG4TBEpykmvd2/7/CC3wHu44QTjW9XJDxTujj7Up03+d3k8mvfInHt4MXHHE5f/lD+v8+eWxZSUv3h5I8U3Z8X+J77OGqf8p7rxPpqqhsBlmUaDid9HbM/dgJits0TU1l0JNefcZVpQFw4weUAoXjH/L4reNybwukXV+f76s+AtiWaNtPxlQfjqT+GYzmhvDjHclRcmaapGwAAAOeV9UBDnlQqgadRAwAAAAAAAMDYWT8MEgAAAAAAAABgEAw0AAAAAAAAAIAzGGgAAAAAAAAAAGcw0AAAAAAAAAAAzmCgAQAAAAAAAACcwUADAAAAAAAAADiDgQYAAAAAAAAAcAYDDQAAAAAAAADgzNT09PSZ/jnR1FSZ/nn/Jl3U70M+vKHGDz/T6RkrKGcqlYr+iai09B2t1wpEzWe0vPVef9pTXXlM9bJ+Q23a23hEO8f6bUf1Lm3X5/UbIm/vCa3unOh3PaZ9cXTD0JqNb2nrQL/RwnEWvH3aWH1FnWhHw5DShDMOw5VXhVa271AwSV2RtLHK3SAunweFlZQubnkpkbo4cLuM2KYrKa+TwurgbMNhDMeQz9G0DSoHV/F1xRQfmzZh2Dy0MWhf0XKQhj128lJmnDaKU17227hrD+Py2LQvmzLNS1lJnDyMpi1N/kiccDg4dUMy5bOr+AAAwPnAHmiIMzU1S59/Vaerf76kB8+b+tPs+AMN/kVncW+fvNo1KsecINXJcfaX7uf+yZLCJ3bVOS30Pitdp831a2Kj4GCDeV8c6qRfDJzo9b68wEm7bxuao6XNb6jmJewzmgb5UZpwRspRefXpT1e6cPqpv1toxXbMelLUjZjy6qaj2KLG8lMafx+OWV7G/NFUXRcXgV6BioPqIGcbjsRwzPnMOU5dtQnumONj1SYMmYdWbMp92GPHVR0bEqeN4pQXZxvOvlKJKYtU+4ot03wdX5x0cdoNV+Fw8I73FO1GyvgAAMD5MdytE5/+na7OfKA3//lNf5C96sodInGiW93x9Cf9jncehU6ax29b5FGBZuf0B/LEe2OevL2feh2c41f0416birVFquqPOPsyEifnG2Wi5m7npC/ofZUvd1ZozNFsUfzneb1t6ITeHraJikUq6U/6HPxOzUi6UoUzQm7KK0Z1UVxgtGnvReDv0oSTUqq60VdegkwHic5cLgYZHNX5LnGc3ZODdz/R7sDgONtwGMIx5TPrOHWdP8Mzx8emTRgyD61YlvtQx46rOjY8zrnJXF68Mh1ZexhTFqn2FRNO3o4vY7qY7YarcMx4dcOYz87iAwAA50nqgQa1muFvF4mOfqXXp9neMhF0sOVgNL1UpgVxkXr4NnCbhDix3lNLBMXJX5+NnexLadNp5I6M41Nx4i9f0oMaJ7Sz2xLv79D2ij6JV++SXLIYOtFHlJY+o7K3Ty+6cUwXzii5y8MgceFwY170gn4ZPFs2YmnS1V9eonguz5N32BxL2cRxWV6lpS/VbPNuzO1IHZxtOEzh8PLZdJyOqj6nZ44Pv01wk4c8tuU+zLHjqo5lg1Ne423n48oijbhw8nZ88ZjbDR4X4fDqBi+fXaULAADOi/QrGnKwmiGt0pV5KgZPmnMF8b5HLhHcXp+nw8a+mxmfoOMmHXoFqt3SJ32pdJ02A/cUKwdPaXn5GTVlB2FbxKdO1Fju7wzIJZfq9+Klll7+GOlYMsPJs77yiopZzRDHGE6S4jVa1/ksXyspe1bJ5eXPPnmnRVoJ7Gt7+27+O3LG/KnQLdm5bSTNNnO24TCFw8hn7nE6iVhtgoM8ZOOVu5tjx1UdG43YNopTXina+WHaQ+N5J2LQvmzDyZu+dKVsN1yFE8tFH+Bjbg8BAGBkUg005GU1Qyp6ND90m0THnDhxihNxnZ6JE/MjGs2E1wntrAZO+vJ1j2h3r61/r8mTuLpn8omIy7fUaM5TXWwbvYBTSzDF79Vro0UL649pcykwMsIMJ7eSykthrmYwhjNYKI/lq9Gicj2Sz0zJ5VVUF0vl+iV6F9ifKrPN62O51YWDkz9yaa687zepc8vZhsMcDiefmcfpJGK0CW7ykIdb7i6OHVd1bCQGtVGcNty2nR+iPZSM552ghH1ZhZM3selK0W64CmcQJ32Aj7g9BACAkUm3ouEv8/TJJK5mECd09TRy0dEMfZvESVutXKiJ3x1uiA5P4N7JuOWCw3tPW53OlXytvhKncaH5u55l8+8hLgbiKZc2NpqyI50wY6jvmSwulHXHOmU4eTGovIL0bS+Jqxk44dg4eKrysCivbIbRV16+6GzrwYt98orzdMXm6m2covkj8r9eblEjdFxFcLbhsAjHnM+m43QSMdoEp3lokLbc0xw7rurYKIi4xbdRnDbcsp0fuK+UBpSFYrOvpHDyJjFdFu2Gq3AGctkH+BjbQwAAGKVUAw2f/v0qzXz4g1r/0x9MAjmqr0/o4YEE4dgj+Qik6IyLWs7otehtihkfO3o577tOvPzZOe80/GCmg3ct/dNgc7MF8YedBz+lD2fsksoroHpLdKKSyogZjh39gC0HwuXlkSyqYvRencitPfkXzh957zyRP4vWmQ1TX7WmZ8fkDCZnGw5eOGnzOXqcTiJzmzDaPAwbptxtjx1Xdcy5xDaK04ZbtPMjaQ+jZaGl2FdsOHljna4B7YarcBKNsg/wMbSHAAAwStYDDVOzi+TfNfEznZ5NyG0T8oS+7o/qx5/Q39MLOZNS+5KWOlMp4m/kwyDTPkxLPeeB03mVcduOLufVnebAN16ILph/i4DX9mcR4lTljF1wdj9lOONmLC9NbNf3JOwgbjgCu7wE/2Fy5mdCGPWV14l6cFeoHnbKa4wPurQVzR85g9adBdMvOaOmOtjiZznTxtkmaFB58cJJkc+xx+kkMrcJo8jD4corRopjJ/W+RsnYRnHacGY7P6L2sL8sBIt9dcWFkze26RrUbrgKRxtcXiPqAxjiAwAAIE1NT0+zRwvUsxm+qtNVekONH8Y/0FCpVNTDpOT9jX28zvc9i5Oq+m51/XlIi4Lftx4Nq9kIPzDJvK8eeeJXs2UxHYlwOKJjFfvd4jHxjoTV3UdXOD0+czhZcldeejv5dXaRvPfxy11KKq++fI4pb07d4JVXf1je3pPxXAQJqdIVkz9R6m/ks1AS6mHSNt19MuryoHBM+Rz+ffxxysmfLPHiY98mpM3DjmHLq/v3XW6OnUHpyoZlW5dYXqZtRtge9v09b1+cMs3X8cVLVzjOce2Gq3B6ksrLXDd4+WwTHwAAAMlqoCFv5EADAAAAAAAAAORH+q+3BAAAAAAAAACIwEADAAAAAAAAADiDgQYAAAAAAAAAcAYDDQAAAAAAAADgDAYaAAAAAAAAAMAZDDQAAAAAAAAAgDMYaAAAAAAAAAAAZzDQAAAAAAAAAADOTE1PT5/pn1nKt9fo5kX9Rvrwhho//EynZ1bBOFGpVPRPc7S0+Q3Vivqt0Gx8S1sH+g1X9S5t1+f1G6H5jJa33us3NvIWHwAAAAAAAIBsWA00qEGGC72BhampWfr8qzpd/fMlPXje1Ftlxx9oqNDK9h0qRy7Cqyt3ibaeEvfavrT0Ha3X2tRY7vxNfLhmeYsPAAAAAAAAQHbYt07IQYXCBfHDn+3u6oWzs1Nq/fGB6EKBZqem1GdZq66Ii29vnzYiF98HFhf1VLpO92oFajaCf/Oetjb2ySt/Rksl/RFD3uIDAAAAAAAAkCX2QIMcVPj51yOiizdp7XZZfTZVvk31qzN09Ot4bp2Qs/yXRVS8wyYd609SmStQkVr0LjoScOyRRwVauDKnPzDJW3wAAAAAAAAAsmX1MMiz5nN6+PAlHcnBhrU1un+T6OXDh/S8OY5BBqFUFBfk4sL+9MR/H0vecvCYtuNem9dJLg4ozRZEIG3qD8WjU0//yJG3+AAAAAAAAABkzGqgYWp2kb66f5MuvGnQgwcP6OXRRbp5/z7dLo/ntgme97S1/C0tx71WXw238iCVvMUHAAAAAAAAwB2rZzR8/sVVmjl6Sd+/PlWfNZ/LwQZ5N8U/qTymZzQ4UyxQ/w0JRZotmlYojEje4gMAAAAAAADAYLGioUAXZog+/NnW732//fdI/zQGx0069IjKN/xbDuKZb1U4ftsij+bpctX/i67qJSpTm9jX9XmLDwAAAAAAAEDG2F9v2f0qy5kjevnwX9QMfr0l9b7yMkvq6y2rd2m7Pk805NdJVlceU73c6vs6yeLeE1rdsbiyz1t8AAAAAAAAADLEHmiQeoMN+gPp6CU9eN7Ub7KlBhr8n9RFuP9dGL5m41va4l7Va/7FvX4jpAnDl7f4AAAAAAAAAGTDaqAhb3oDDQAAAAAAAACQB1bfOgEAAAAAAAAAkAQDDQAAAAAAAADgDAYaAAAAAAAAAMAZDDQAAAAAAAAAgDMYaAAAAAAAAAAAZzDQAAAAAAAAAADOYKABAAAAAAAAAJzBQIOF6spj2l6p6HeTao6WNh/T5tKcfj8JPo44fxz1Z3RwfI0Lji8AAAAAcGtqenr6TP/MMrv4NdWvzuh3REcvH9LzplUQzlQqFdW5rJf1BwHe3hNa3TnR77hk5/UbqhX1W6HZ+Ja2Dvyf1b7oGS1vvfc/iOE2PkSlpe9ovVYQEYnfb/f3AcE496nepe06UWP5KYU3SUh76Tptrl8jLxquCqtAexuPaOdYfxRKfzv0uy71d/P6jTAgbV0D48xjykMOVrqCYuLMqT8dA+PsuiwM3NZnHF84vuJZ19WYOHPqT0deji8AAACAj5XVioby7TWqf/IHNR4+pAcPHtDDxhu6cPM+3S5P6S2yd7D1LS0vi9fGPnmqs+e/t7/oqNDKtrgQ8ETHU4anX+8u36Wq3oLDbXwe0z1qUVN/EiU7uuu1tuhs9+IrXwMvgoTq5XlxUfY6ckHhJu2y8646+vrvN/aIauvf0VJJbyDIbfwLhM5+nlGzfCdxJjI+zhzmPOTgpCtqEuMcB8cXjq/BcHzZxBkAAADgPGEPNEzNLtLfLhId/foznZ75KxjOTl/Tv998oIt//VS9n2TVlTtU9vZpIzIbdrCVbpZvWDI+1JAXUJ7+JKpCl8tyJteis126TjfKbTp8G74oc5X2451HodnB47ctcTFYoNnO6max/3u1AjUbwXDf05a8aCx/Ft9JHxBnDnMe8hjTFTWJcR4xHF84vgbB8QUAAADw8bF8RsMH+rOtf9T+1/6T6OJfqTw1vlUNJnJmUt7LK//f3u68grOJ+qLisEmcla9q1rATzuZ1GsUklpy5TZo5FbGlU9FXLtYW2bOipSvzVGz+Elnea5f2ocwVqEgtehdN17GnOukLV/p76fFx7vDv0+6VafiebXMejkZynJPrz7jiPAwcXz4cX9k4b8cXAAAAwCTiDzT8r0V/fJihq3/vrV6Qqxy+unlRv8u3Yu2bwFLXZ9SkebrR6TSXiqKDLi4GThkzZOU7tD77Sy+c4jW6F+h8m/lLd4Od90Gd4mQntLPqp6Ou/t60bLdCt+Rs57vwrKpN2sv1SHyD94HHUBcE1KZO0KXZgthRW8Q8yr+o6zcgzkr8cvQ09+nbiqYrLCnOwtD1xzdsWbiG4wvHlys4vgAAAAAmH3ug4ezslH7+4SUdXbxJa2tr6nX/C6Jf33zQW+Rc6KFf7+ldU1wczQaezMY1dDjvaSvQcQ+9Vl9Zznp2wnpCe16BauuyUzzggqh6icpxs50W5MPrQvFttPRvYlTvqoeteXs/DZx5NEqIc2nps9jl6PZiLkyTLkhN6TLls6N6mHlZmOD4wvEVC8cXAAAAwHlkdevE2VmTnj94oB4EqV7fvyZ1J8XRf6mpn9sA4yBnX2WHWF8Q3Yt25Odo6Ubah6elIDreagZQdPr7ZkCLBRGbqCLJa4HwrG9ynOfU7K3nYDl6zIXpoAvSpHQpGeczhzHOYIbjKz0cXwAAAADnkeUzGsKmpsr096szdPTf3/QnE+q4SYceUfmGzdLqtFwt7Y5zQm8P2/0XG6UyLRQHPDzNddpL12lTd7x7M4s+/4Fp83Q5etO7mqWMLDtOinNHsZhBeWkJ6erixDlLnDhnAccXji8THF8AAAAAH5XUAw3q+Qz3b9LFo5f0vDnpqxlOaGe3JTrW12g98jVw1RW7r6Azc7m0O8q/f5mav4dm/Kq3riU8PM1h2mXHe13ua0DH+/gV7Tbl/c/hBwWuiM56dNlxcpyJDl7sk5fy/mtrpnRppjhnihnnbOD4wvGVAMcXAAAAwEdnanp6mj1KMLv4NdWvzuh3H+hN4wd6fTq+QYZKpaKedF8v6w8CvL0n3aWsahv5oLpAhzDuM9Up375DweDkvbqdp5RzwuHEh0M+OV3e99tH3jetLpj64yr178ffTn6lW/LT1hPSrjvVXjQMtWy4QHsbj0Tnf46WNr+hWuzt0C1qLPe+ci+aR8E89jHj3Ons67dSMP3mPOTgpsscZ079McbZcVmYcOozJ12+hDomcMLhxIcDxxeOr5AxHV8AAAAAHyurgYa8kQMNkEx1rBdaFh3/8UOcYVKgrmYDxxcAAADAZBnqGQ2Qd3N0ZaGQzXf4O4M4w6RAXc0Gji8AAACASYMVDQAAAAAAAADgDFY0AAAAAAAAAIAjRP8P6/RzAEjjppMAAAAASUVORK5CYII=;" vertex="1" parent="1">
          <mxGeometry x="-20" y="490" width="1050" height="169" as="geometry" />
        </mxCell>
        <mxCell id="9mXArXxCdhET-pIko4T6-22" value="" style="ellipse;whiteSpace=wrap;html=1;fillColor=none;strokeColor=#FFD966;strokeWidth=5;" vertex="1" parent="1">
          <mxGeometry x="920" y="490" width="110" height="50" as="geometry" />
        </mxCell>
        <mxCell id="9mXArXxCdhET-pIko4T6-49" value="" style="shape=stencil(lVvbblw3DPwavwrUXXxO2/8IEKcxmsaBk97+vhQMrVfDs3O8b85mZlcXihxS1EP+8OPLx++PD0l+/Hx5/uPxn6dPP7885F8eUnr69uXx5emn/fWQf33IHz4/vzz+/vL817dPr//+/nEi519/Pv89v+HfV15NoY/JSvLf6ycplNcPfnvFf336doUvI3RFfCP4GmpEfCf4GFIFvObb+DzWfy98DkMIvq7pLXwJg31/DCVt+BoGWZ/UQpUN34NEgs8h7fgRhIw/2Xh2vAYh6x9HqPv6RAmNEXrIQEh0RNFm3HdCDloIoYYEv1CDkjWd39d2Qg+xEkJCo4saEhtSxFWyda6JEmCVbCOZnRoh7atkllL4kPAg9NCJJdm+DhiSUtPTUPeTYLbOVtVOftnxOQiZslnevmt29jKxvBHivmm5hUZWqIUB47EREtfSlhlfTr7Q77eDvo+nmCsi319D3zfMfB9zdYbfPUvhR9/w+/irhErH33ZPXW2/6HjabqHVPiH24/GD2k9dfmfhm60/OfYeH4Pe9f3mW8kZNvy+X62EovfgbUeIPXt8p+fF40dId41H14l7H74LDX0en0Kk9on4HDK3N8CXk/OIeAsbd43HosZd4xnUQ3u8Ugft8ENo2PP4tELCO/F5hcFb/nCPF6NSZWCrt/uT0al/s+gD4xnUf86It/+AylIKt3SB7BFAIz3xJlVgCsrVrsmGuPsUzUv/3pJnCr9QqT4z+QlSRblV2zaMfVm1hUTmkNM6VVeEQYZkYTfBpDs1vBl33ZAqWaWSlyO5mnQlv1BayG6V2KSLonqaBOYsTOQOJFBvYXlDv4vQ8XyeEFpamcy1LRHztvjSYeMK9cAWADJMOi/rOibkUCISMtnp3lCUzhNHnJL53AYEk9pMlUro4MY0NLJK5kVl113mlyIjlCWjL4RGA6H50Qyer9AzbY4UnMA4kdYDs9Jhq8R+wS2rBSsmNo3Q9yH1S2Z7k7C7GTMW5u4nYbfWHmm8nYTdWk0g0WX1hL6W4ZigmIy3tvK84xAnoTgNGYlfmgEKhpSWa7tFKPsqVaWqwQhgS/UkTMeVrV8Ijc/BlSzMFzJr1YJKw7xtJBHICAlSL6VSdRJ2Z1w637iyjsuFUGjdaBL2E2fZYOJzgApB1uWpbhIgn70orpuE3fhyWSHmvYREPd8kQAovND54wluV4b2Ewc+DJ/SlAt9LqLRMYOatUBHN1Guoi9OzeMR+wXT/bkumMwuLcQNT/1mlY761Y23HpC+rBVlEgygay/rNWzEOTlxMqx5wTMhofKb3WXnBIhrUg6LQOZh0gI2zKEn2zQIauNa2dOwxvmB+Umm9w9LltB/oQusvlr7rvsuZepgWUdgnmpvMcktHPJPEigUwniwZPmLpntaDnACI1EEavoFR0xzA8LqPnzsvG38pgGeB09YT4qDQuGn7FTPgWdg0ZRBx/Mz+W16Z5tV4WP00rzTwar7EHmZ5DNeH1luL8yk0BZt4OPA0nLVLcvNmb/R8ZUxTE/UPLeHVEvdwszzpzhezB8FaQaL+x/CCV3UszJg9Z5xvYviB9hDpVdc8jxACeL1sYJy8LMCt8Sc8L0xLTGGMeOo/Bf2b0FKN7S+kE0JTqHvx3dmbUEnqc+u0ZPMxXtH+89IhtwIw7Be/z7AI33d7aHT8JiHGLoMGrSWYqIELH6VXbiazmlMcVL0mLEtFnsJqxqx6VhjZkCpWLKeQY2lHx9TJpCIr0upw94zCV0nxwnrKDqbAFdXrrGGyOXjCiQL3hBON7wknWYQnnOQpzrecZUKecJJreUJe1bn3Ek7SP8VEP1fqAA4IJxmprgu6C2HQ7pADwkmSrNgKUCJ1qgeEk7xdMYqXvJoDbhKgo+SklKAY90ujwiWKuKvrvooF72YMmm0dDEpp9PdbVyMv6iiGq8pbgdRdK9SThe3r1uGqksVKwfNeA2plg17pTgIUCLmGNwJcIJkqoJ7JOXyToXTjKu6D6WLWfqPFVUUbn3TBov9J3XUSdu/ahd50TAJUp7mUVJeKmHhid6+T4C6naWgvWBzolbYQTcLuN2bB/GRIQOg0Xzgg8N4vvw9D6F2KL6OaBmQpjzrJNzK9GtHoCHxZh2J32eANdbP0tZuGfUVkhIoCyAbJrHVeq8OtGS+k2CJCpJ7XbEypd0eoNPD2hKmYNkpoLhdQLtbNR1R3KcxCkGXbLSGBOePm7lKMQPtTCsqTSWC9qOruFjsVQLN5FeYwVg5+TIjrGvtCuHRBHBKy4t2iEVgTjEk2LJIITyuzOGNS2ttoaRv2MCgNcm/l7qtlovJEV2Hq2jZYU2rDIr6ZKyuAW+JWfR8GORBRsLiovJHYKYGZPbKNcwdOqGVELI6OQR2luCvkRk1VMNcdhVaPPZ53F3k8717yeN4d5fAn3Vcez7u7PJ53j3k87+PxeN79Jst8rwQMOwEez7v3PJ53Bzr8Sfehx/PuRo/n3ZMez7szPZ53f3o87y51xdqT7lWP592xDj+vL6j9I55368pKSa9yKZYPejzvHha8rKiFxgyP593Mgt2HNVJ/LliZO+muFszTZssZHw/gebe3YJdSabQyIigkZvc5t3/XAMEUo//+RLWTW88ST/xbhLKL0A4OQc0xXwIxzYHterlT+3GX+vP1AnvI414j8KaYhGWmnNZ7gGNpieuZ+W1dxdLGfI9Bu58hqZnvU2h3OOIrLf9UFGTzoRbvxobLjZPbLtRLifcCN7yMNVHKX4/A/sZB40XH9Cd2WlZ3DXqxhsEFKxyYWOgPzPZquN7jrZhGgKd+kUsyGwCs6aD5mKl6eMvWaR5tKw4+sYXG38pBQ0WlJvH2Iuvig3hntWAxI9McwzwCXGgm2jBgHgrf7tEQYx4ZSh9CJW5xlQ/h3+/efgpvwHBvS/mFrEX0jA0JTCIa3jV4sAvEqTBw/PQBlauUyupxPcZX1BwnDzwqPkeINMU7wrMUzI8nUhfn58tffvr1TLzH3u1XouVIbw+Jtsnd+5b5HG9/vD2c/vz09evru+vr/8eH1vbR6yPt/Ov/);lineShape=1;strokeColor=#FFD966;" vertex="1" parent="1">
          <mxGeometry x="15.96443782909546" y="525.9188110853095" width="36.06670064046557" height="78.83885345438125" as="geometry" />
        </mxCell>
        <mxCell id="9mXArXxCdhET-pIko4T6-50" value="" style="shape=stencil(lZ3dkiW3kaSfhrfHEkDi73p25z1kJmpIG60oozi7M2+/SKOd7q5w1OeFO7HlfioyE0D8B34q//avX/7yz59/yte//vj9t//8+f/9+tc/fvmp/K+fcv71H7/8/Puvf6z/9VP53z+Vf/vbb7///B+///Zf//jrn//9z788yOd//Z/f/u/zC//9Jy+/0v2Q8vU/f/5Df//Dv/8J//uv//gBnl6jBHi5CF7nB/h4JYTfH+HzlTvBS/4AT9drJMLn9BGfX3cjfKof8ferDMJfH99lam8Jt/jrNftH/Hhd8Pvr6T7i17+kSfj+Uf71tS943oX/+HFzec2K+I/vP7dXRvkjfrwa4z9+r5LM+4n48l5QX8TX14TlqfjxKrDeBH9/+5cv4tNr4vqJ+PJKR/i1nssJvr7qEb69V9QX8f014fBR/MTDSvD1ehVezwG/zq8jfH7vuC/i1/7i/Rjw9ZWO8Ov8gfPzerWP50ntr4brvwb8fDV8//X6gG/rgMf1eY+P+PJquH4ivr0u3F8RP173Cb6vE/hE/l5e+Qhf3fN+fP99vDXO1/Bj/Quuz4hPr4b48H1HeQ08n1v7iK9Gnhl+v+H6TNGWGR2/V3pr82/4iesnvf/6D3j+/fHx9+faoSB/jvbJTLgesphL6xfw90f4/fK6QD+WaP/M+3XB8y5tWyK+4u93+f0J59X9Sh/X56yvC/F3iniyJ+/XuCJ+wP6q8n7a+wt+gq9D8PB+WrQnF570dXvVJHiQv0Vjfj0v6aPlGgie1k9/a58fvi/t36V9csRnkL/L/rrRvh0i/9K/IP8Q+Quuz2XNyv6i9zleo57g59v6/TI++EcWX1t8nwnO5/nqM+JvOp+v9/Hx44KAD7AIWU8IJsQjpb4PjT1BfLbnjCAdIE7nQyCPOcmqXgTyOlN08xwhv63+Hwnw3RahtKNnyNGP9wQ9WjIcXam8d+6PBNKt5R14+Dqhqkj0pZd6UpGIsE4fFYkJWUWiDXRHC80TuorEhKn7gQjf/u8fCBgk+Wbz/UAgL2IRmiw+cosXYYbX2nhptLdb+KPipB3XxJJaBDqX+jsw8nVCPMgMYYjxaAntTKS5MXcMIZ58TFgG/zUPCVFjGUISDWQJ+fQvRKPcErqsVkOYZyJl2aKWEA15S2inIs0zkYrYbpYQjTdLaKciRR1nCPfbW/k6Ieo4S6jqMTChn4lU3x7y1wn5TKQqOs4S+qlIUccZQnulo6NyEaLnaQntVKTo+xjCct7OROo7pcgEdW8NYZwdxuN1nYk0DtXuItRTkc709CLMM/0w37bL1wnRwLKEaGBZwjwSqVzvuPXXCeVIpEVoR4fxIowzkdKhcbII5UykdGjNLEIMWBlCfl1nIuVD82cR6qlIZ+bPIswj/VDKofnzZA2PDuNFaKciqQaiyEm5N4cApVIWQWOBN3hZRYOfDZPjpYrH3jCavwhqzRiCWjP4DMsSkOMeCW1jzdwQplgEtWbwO7SY4/EEtWYoSbUIU457JPSNNWMIty4+JjQViZb32JytFF9aBA3mUKp5EaKhy7mnMuWorBisX4Roa3DIaxGircHhokXYBKTotU6xNSoWjNzXJiBlCLeIZAjxuOdnuJNsUY7zLcImMAhr6d4GaClNlCS+xEvjzpvXSmVTixAtgYqVRIsQrZmKqaKnUkQJ9JbK5ksbQpfXis9QJK5RsbzmvjehR/wOtyj2igVLixAVu1ka92vqaoVj5q4xZ+0JRY8Z+g5VslJ8Li1CTEuZHdckL2UJRUWiL93edThfJ0RLwBC6BAbNudQlNWUJMTBoCbqBDCFaAoYw3mf1V0/vIZaAJcTAoCWMM5HmJvllCJr8MgRNfhmCJr+IUK9N8ssQVMcZgtpLhqC2BhLSJvllCFleKyWOqhQTP4kj8FCq1t9wfUPNUmDS8LhfhE2cjwkxt8sORy1vJft1gqamyOGotxzG5i/c8h3aW8V8RhjyDIPeUhV3oGMhwiJEL6u/jevPCDGC1bFU6amklL9AtSyLELWoIXQpLLCEWH5hCEOCOeahhxjrhjBFoVhCtCo7r6XlA91CoJqoS5IuHU+NRbivSKCqvSZl7fOb5t4TkoSx+/upPiNEldWx0HgRotq1hGh7G0KWgJR5hrz50viWspQudKyebxoYNB+ubPYD/oUiASlLiMd9xzBFuyWL39+K+DNCPIw79sC0KoZux6Ldpvm4jl0hbXe2Uhll256t9BeaJI46mg6tiwPesRGpaSliw9aERdCk/KBnGG/L4gdCp2cYm2gorqWxiYZSu02bm+IIqsxZhGjCsSWwCJoiJJW1CGovkULpu0xThYdeBA1uViqCvTbZMuoSWYQpD12prDVtloYhaOLIEDTzSp09PW9KFyp86UXQYH+l2t+8C/bTh8ub0oUbrMpedsF++tJlF+ynL112wX76DmUX7KfvUHbBfiLcu2A/qN2uRfOWsAn209K4N6ULSKibLD7WhddN1IFsjd42gRCKJHZN63DYrjfJ+N3vKMGe0MUXvfmY6WK33lg2vAgxuHmjUlyEqNhv7D/qQw5jbiBZBO0gMYS4ge533mZPmBKmMM+gOo6bDBYhxirvt73/GUHL6IkwLklN8TMsQlQo/JaGdHZ5QnTL+MMN6X1+CHAIDGne9oQY7LcE3Q8X7IdFiMF+Q5Bme0+IlrHpWMm7FhQmxNiMIZRdEwoTYnzJEuIGsoRo6BrCLYauJcRgf3kbdZ8Ron6whBhEsIRoCRhCFR1nCdEytoT4DN+sjz1BG9xuNOFG2+g48nbHrsWNUiKjS0ygYunC2GVpyJQeQyyyik7TIsTaUI57jymlnhUDIUPdMraX5rVJyhtC/HAVO7/mrk6AfNG5qxMgx29qZT9/uEWISrGih7IIUSlWdAcWIXqKFS3jqR3DnENZBG2+oZEIixC7RLiwYBE0A05Z/Kldxmx7L8ImA04PXQ478BZhkwGnt3TvMuD0pe/DLsLvxv+PBPoOt1iVnJSfGhi0BN1AlGN/drA8A9mtT7pOLGNK63x3Vb9oSj8hNNGieGo0qf3J7xe9J3Sx+bip/wllhikJE42TJ8USxh4MTEJOUVmjoRZ9Ar5h8IH5cCPuh1H4qBwx1DIyr6URwxRmtsWU8GkffAhIN/cTJQAtugjhtT7BF36GsEV7xrbDRQi53SfcyQ8dDrLG+bhFCF+68QirKf50uzFQPqVeo32rnv6MEGzvZ4oMbSApxKyTFYr0ydeBcw0WIYQpasNBFIsQTId6YwHglNrQmp1IgXBPTE1tCJ31tBJunJa1IWQcx/W81o/74alHpf0wo1VZODX1LI2Ph0Bp777CT1drGPl1syUwY6D86VcwG+jjcV8SZmmeLfpxeeeJkfWHEMa6Dd7TQ+bMdX5LIwYRnp48c5AFkW5eGkoo/B1GzHDkjBGsDYGHPSnhe7/zVwk8fmpD6E4pRkLD+NKG8K0N5KuEggm8DSFja8yGkLCOTLXo4CEnI3aKdSdQsDQ4xzllygw739/z9d/xaDX0mI83NnGPxVSF5ZfZBoVtvRZP7YzRiYUPB15+j5X71Gu4Ip6dhvD+M7+fOyaLMmY2p1SdZz5+i0zV5KOuxLbBjMUQzwyvoARxSODMcYofD9l7YgwfD/ebLZEUK3hv1mcp7scbCyem9HeY+MIV5eEhgQtfI54CgFNqcZuNnYWpfzjE8vuMue94Wv8azOP6noUPFaaDI6Ri4bC3OeRAH2i+L3yQf2CW/nF2o/wYQx7RpBvomj4zBOPzGnwTeRgfPVk8H4Ykhg1eMs8WH+ruLD5OjXT4UItl8deRPDXWhVh8PZJH2lgtPug7g7+jqWvxcSqlw8f4ksOnI3lKPG8tPkQFeajykKrN/v7ge7wEpDta3Qsfp7Jin9uQSlhznqeY+eZi+CHzgbigbUiagodyL/wV5SFnb1wxLsZhsYVP0b6lsEGXkj9O/Cx8E3uAyy1itMcVgIS4OIc9uqTrzNBLmVFyc+lRj/uLh7R36Ttjj63LlM/CZXXSale4mqvFugwekvxEXaN9TuHwXmMIM2OZ7PeZyz/Y51TfU+NgKQ7admlmyRh96TKIIeN52GXmk8UX+X2uIBR/DfeXjMUy76dEeztjCnPhi8hD66HEgHNGe77nWN+buYBY/KPCVXRZ/TWUX7LIxdX26n6n9ZBifJ39wS4j9Ar6p/3S88HgS8RjoeQVu2luHnosUwm5hGThSzyfSV+3GRN+9/vA3uNHtE9Yvyx8i/Efgw/6pWL9YuvRX6gYn3kyStEeIH369GJEe4PiCQt/RfuH4mNPc0i0f+hSjIWvYv/w75dDeZLIww06YZSDxTeRh9ZDjaO1LD6JPIS/Y7rB4pvEZ2g93LGRzOKDfW7wor8aZhpaiedt444tmXTcsZCjZY3/kH3YZFYz5/VajnP+OtonTaZNm9+XLmyLbyIP4+/o3xl8Enm4vTOchxbfRR7Gq7/J+Hwoz3Uiz9NhG24ZwfW28LGwwuFLlMfgryN5JBlp8cF/tPhyKE+K+SbES7GNxbcjeXosXrD4fCRPi52QFt+P5GkxvmHxEi8y+OtInipVPA5fj+SpMV5h8deRPHe0Nyy+HclzR3vD4lM8/xFfNL5H9tLCh7KUhvbtwqdoH+IlLzn6aw3jgQsf7HO2956pJhJPA31dRT/aMSvBPqnYyVNl8ioXgC18Ev8Ffv+pY7oiniY5SY0P+0e3TAZkf23hS5QH8T3akxYf4hsWn+T3aaZZ0/yswTeRh/H3oTzpSJ4a9YvFh7JMi49VaA6fD+WReDLipZDb4muMhxh8OZTnkngI4aWY3uI1PsN4jc8wPh3JI/kji29H8khLhsXnI3mkqcTiu8SvGF8P5cly3jL+OpLnivrR4uuRPFesN7D4JPoC8EXyXxYv+SaDvw/lEX2NeCk3tXjR7wZ/n5y3C58P5bmO5OlxUp7F1yN5emxAt/jrSB5pkbT4eiRP29gzjA/xJYOvZ/ZMkS4ki78P5TmyZ4o08lr8kT1TpBXZ4vOhPEf2TJFubYs/smeK9Jtb/JE9U6Rj3uLbkTzS82/xmm8ivEwtsHjJNxn8fSjPkT1TZHKExR/ZM0VmX1j8kT1TZHoH4/OM+SyLP7JnFv7IPnluLT05z59bUeP5gJcgb/Q11TPrLbAFWxie8q+Y76b6kNxiE2rBxqonnJQjnuRpMX9dsDP+SccKHuJXucb1yfn3J1wi+Xp6P5K/K9gG83T6xPoig09Hvy8jsoz8MoPL4m95PxDvyjJFzOIvkYe+Vz6rr8gyaM3ii8hD+1FGxRl8ivrU4lusnzH4IvLQfpFb5A1ebqm3+HYkz7XZL4zPJ/IkuVWE622S1E9yvU2SW6tv3L9J+gVurO9deNV3JP+I9RvfEiCf4S+x50mevtGPjNd4F+PLiX+x8OlEX6cWp7xZvPpTfHduke9Fl1XL7RLm+0o+juu7ktT/W7z647Seq9anofz3xj+i37839qq5dFrsbbrgueh6oIEXqWi+wODVv2Z5krwfet4c6zfM+8zRHjDfK2s/psFLfoqmIyepFzX7JW3yWYyvIg/jNf/F19lfIg/hr008ivFN5KHz89rEoxiv+TXqV43mgINrdg3hmlxDuMaiqNdkk1pDeD8RZpwl1uS2Agc/CkPJ5QkOfhSEkrscHFxNDIDL1RIOfpRQk2nsDn6UTpPh8A5+lEyrZ7m0ephKO8ykHSbSDvNo2jbE8KMsmtwi4+BHMSe51MbB04kwosC5wUvirRXnLGct56b2lhSzbQOvyUjx4Bis/GRsFtsS2jpMoam06ZTGX5dGVyq0lltQOsa9NvBMbkk8UhtWDYnTz/cSSMyaZwTIVVcNW64kYsG3CUvAnQvapD+omSVWpRwSZZdqYIp2pRgsHbhXU4y9DfPe7/jrGAqJlfCDLfkYWHV7NdhiA/sEkrZdU9tXkol7WKW42U38qAKnOwHE5O84eynJSDhzEgQHkK9xOIaL/U7tUnK1a8FpRVmbTTH4KpO4sBdXFKWDBzXs4PVMmHEijBgoDh7MHwevZ8L0M2HiSDaEi9np4MGodfB2JkwwyBku5r6DlxNhxFVx8HEijLhZDl5OhBEX0cH7iTDi3jp4cJ4dXGZ4MVxHWqFrPkUYgEvQwsHvE2Ek4OLgMk2A4BotsnjpZjd4mYZG01U0mmbworotXqYJGLxMK6DpaRrNNHiJlvI0N43GWvwt8pAlJM6oxU+Rh0wniYbzdDyNtmf0djWan/F2NM0WGLxkI4w8ku0wzyvZFPM+JVtjvpdkg+zv17gfUX7JZhm8ZMuM/JKNM/tLsn1mv0v2kTWLZkMNXrKzFq9amt7niNVmGbtn09T1TBNYFz4YdwmnBybphkrszcwof8IbrbV6wOKD9rX4dijPPJJHAjkJw0Qaa7H4JvIwfhzJI9UzFh+qcyy+ijzkr0p1kcFL9ZLF5ygP7S+tvrL4HuWh6QBaPZZwGoJWp1m87BcKBWp1ncVPeT/0vFIdaL6XVB+a/VhlnDNO09BqSIvP8f0YfD2UJ1RHJbynRatFDV5uJrb4W+Qh+bvqC/xeMv3HrGeZhpCw2iNLtw9PK9PqZNbvWv1s8TJtDYNaUr1t8flEHq0+t/ijSJVWzxu8ZDos/j6SR7oLLH4eySPdERZ/FLDS7g6Lj1clMF66Uyy+HMkj3TUWL/4U4qU7yOLzkTzS3WTx/VCeeSSPdH9ZvPjjBq/+F+PHkTzSfWfxGr9ivEx7NHiNXxFeuh8tXvx3gxf/3eD7kTzSfWrx+Uge6Z61eNHXBh8vm2G8dBdb/H0kj3RHW/xRxk27uy3+KOem3ekWf5Z1k+56iz+yZ3Q6gMWfZd5kuoHBy/QEiz9Kvun0B4s/smd0eoXFH9kzOn3D4o9ScDo9xOKPknA6/cTij9JwOr3F4o8ScTp9xuKP7BmdnmPwMp3H4jUbx3hNxzH+yJ7R6UgWr/YMxFcXXvNxjFd7hvBjk49jvObjGK/2DOMlH4d4uR8y4zWdOr3L4iUfZ/Bqz0C8ZeElH0d4nW5m8bec/4xXe4bxQ85b+F5VarE4H7rwct7SHfFVbocqmD/S6XjcrVqzdl8bfLgA2OKlG5xKCmvR+jDqNq+b7im6jemZfhhbB6g7Xacxmgp5mfZo8UfTAXRapcUfdVbotE2LP+oL0WmhFn/U1aLTTi1ee3IYfzRNT6fBWvzRNECdZmvx2m5FeJnGa/Harcp47UZj/NE0GZ2GzD1XOm3Z4rV7kCrwZBq1xWt3JeGlepe7AXV6uMHnTW8JTXvP8XY67iZtkg+93wrnM3yJ8lPt/8KL/kL5RV+w/tLp+Rav00Do/cvtAhbfoj5FvNy+wPr9uQ1C5OHbLC6Rh6bPS/6Ob3NZ+BHlT9SNN/R2UppmoreJsD353G4i/gKt/xnfJ98etPASD6H6mee2mJjfx9ubrk39A3Vmpk09A+ODP5LwCvMu7QYJbyvpOb7/i2/HyVF/XVhf99x+lAOe6isWPtjzF8svtzFdeNuc3vZ04TRtvU3qwulRelvVNwduj5fbsC7s99Dbti7sy+kSv7qw3arfMd578Xqr8Ty8+La5GuPtl7vtrEd5yH98bmsbAU/6tMvtoYnXj9xOndztdD3i8fYsqW9MqI961/OHptssvOQfaRp7l9twM6+HobedUf35cxtiPM/N7YwS36D+1+c2x2g/4PPO6L8Uvu1yc7sY2TPPbZcn9s/CD4knkDzSp8rT4hY+fN+CXYQjxfqEgn2wQ+oVbzzfhtQr3nxbc94MgWD8kT/73PYa5aHbCEaJ51vl22HlNne+fUFvz/1WoP0ZPug7iw/+psHLbcQWX0V+Wg9yW7PFB3vJ4kM81uDldm2LH0fyyHlr8XI7HbWXjhn9r8r7d0b/or4Nos/w4bytWB+48DK/g+SZUk9+o/2w8DJN6eLf7+Lf8e+LviD7YSbNB1E/y9zkr6mec8o4CbYfZo75dLZ/Fn5Ee5XsjVli/RXbn1Nuv/t2Hedn+B7tbWr4X/gZ5Uf8Hdebxd8iDz3vHf1li58iD+iLWdW/M3jx73C/1KgvLvSvFz7YAwbfoj1g8SX6Cyh/U//oovUs9dgXnoezaz3zTd+3a0M/6dOFl3oVytfMEeOBBfObCy/5I2xvlWnOFf3fOWN9fsP81MIH/4hv81r4kB8ZOIjlwX/8vhPzj4pPfH30hsDzCTeEji7/hjDR51yEmOPPvGmUcOMdYA8hrOqGYaOHENzIjn7JlL63p0ucRQqJsGI005Q52RkHz065GLrcGKtchBh7/zYd4TNCdA47zq+ZEg0tA93tqe7w5LlH1yXjJbkDaMdwPejKYC93x+Bb3HYMvkdvx+CbY3eMwd3iG8bk/k5l1As9zB0jo024YxS30oPWqjer0RnDVrXi93u2Rrh1vGPgRDdfnei5P4TgqV24CKeUCrWMvt1zgARf2b7WcEQ96TM+NUP0qjUM/+vJ/1w3z88QCJ0D3BsCR1hV3XWegfQQwvCp4lRF6Pl5otJHRk3vTt2FKtD+re79MzMrnMvjYlUxYl5lfOtU/owQVusT2iJVITNfBs9JfEzRjw89Gs4WWISQux+d31KPxvoTzmBrOlQrLP8bzWNp35iF/fMeF9/kcfRTClRn5dUqEbDZcATDlBadyRP8lgDB556dbV4pQn7eGz20VDk/BBYpbCBHkDptTwhn6zR7WirNZ8fU/JRS9u+r67NYxlCRaANJMf5DoLNVqv0fAq0laSdYBLLlpvQrPARaGtIQMTtvUem4mJ1dcGnpmMaqlp6R717/F4N6D4GjhsFZmcbtTZsNRH3dU+oSZmdH/NocApRJfyKx8gxo/lwbkUxsu8p3oODhIiT9CxStHrFa+nloSq+JyjJvaWm0LiJRAGURsorEGY+uItFbajEl8QTBiFBjzmwRKEm7CCHI9KgsJoQukskjbYe03XpC6IPxhNA47AnREmgYRBnS+uwI0lvtCVHHWUKItnpC1HGGIP3tntDORJIOfU9IKhJtUZkx4AlNNpAh3CoSp/GjjjMEmfPgCVHHNXReh0yqmA0vghoyCsMTQm3l5LnZfYqR2HB6SRcH3BNiuLlhzKhL/5N7hiEKhb/DItz6lkxJkXxprInqMedojvtF0C9Nc+m7VNHO7sq6VCnS6d2lj+LJ3HAhWBaRqPLniTEEkQYaJ4sQUsuTcx1P7V6OhE7FWnds/vKEUD0/B5en3bG8whOigcVj0LsM5PKEuIEGltx3GSnmCdGE40sdujQBzIFdYD1LXGNg2LjLWLfJVzv0HMN2c+DQ9S6FXpOH6fcUJ399z01+Rqi6H+i1yiwCR7jE8bOEUB3jCbc+NH3pK+ZHHwI1EMiACnNqNPWyBsbum+q4gdGfJtHQOTDU0oboac6jtLFZ3jgYfGyWBvY1dLGXBjc2dHEtB4YpmirFgdGfJtPNn6AwvaUmh/HEFFirYglMjJwsQoxVTm6P0TjfxHqHdsf6/TlxoFyTAcLfU0l7QpENNLlFrMjim3wjVpFgznwHhfcEKVr1hBDs94RbRaINlGPd4ffk9Z6QYobDfYckQQRLiPaSJYS0jnuGS4II5ktrjMx8h0u06MSUSJWs5fw20fczgn5pyvhVGbf/Q354z5Bk1hcYIfj4BUbs2/CMfCxVOJwsQy5t+AIjzkv1jHIs1XUolaiWLzBiKsIsK7n5wxNiKsIQqoRpuParys0o38sUPiNE15q3d5Xpu3OiUVDvWMXwvWDuM0KM4LE7VOVeHeOhVbm3x/0FuRfIE2KAmh2uRUjirJDDVaXq2fhPVdoejTu0CBvnnb50lkjq4MknaWMkZ3oGGbX25NN51oumIvC1XnGY4ZNepGe4JN1uCdEttYTrSKR7xoZPT4gWqSXEpWEJMa5jCFIc4gnR1rKE6MdaQszw9LffuSdIY6MnROPMEjZVDEyIGR5L2FQx8PQyDVsawqaKgQlRP3CdxC0XhjhC3VUx0MitKhkeS9hUMdCQrioZHq7EuO9NFQP54re0fZhKjEWIGR6uxLilceWpYqDFJ50xphLjqbmV1Yqz0oq4Ep2HpRUJZhmC6mlLiDFC8wxyP6N7rSkOsDUVMYtwVqRzy5VZbnnvaj1wi+5qPfAguzZviY77Mg8tgSJlorNjNX4ZkrvgjoKitR4Dy0/KEOd9YD5yEaKHwqHX0g/zL4uwyb8wQePNhrDJvxCh7fIvNEG57fIvTNjkX5iwyb/Ql267/AsRdrk88lAWYZN/obVUN/kXQ4iGLueQyh07jT0h+g/moWU2lPtwReLNZvEVUbsDm69KEbVrCVHtGoLGai0hHsaWEFPVlhDjzZYQ0+2GkDZryRA0l2cI5VSkS9xjJFybmIAhtDORrtgE5wma/CNClu57T9AEpiHE6ltL0EMACSMW+XtCjJFZQj0VKctxbwgxs2AIfZMMNwTN2hpCORUpFtMaQttYM4agFpkhaDWJIag1gwTNeFqCWjOGEFOklqDWjCGoNYOEe1NNYghqzRiCWjOGoNUkSJA5bZ7QzkQqsfPfE9KZSDnOgvCEGLazhJiwsIQz8ydrmtcSzsyfZ+DCmX7Q3glL0HoVJFybULwhnJk/z1S9U5HOzJ8kveeeoCkRQzgzfxZB/WkkjEPzZxFixm9gNckiqPljCLH8xBBkAIgnqPljCBs/jglq/hjCJqdIhLbLKYLjtwibnCK4lqlt/AdyXvWibJPxS3KT6Rzu6u6YOBrY05V2YWyKCTyXm2skkV7rLcaJJWwCg/Qdbql3N4SyiyQyYZNTpCuwyy7eyoRNTpEIeZdTpC+ddzlF+tKabuYMxyJscopESFIWxymRJJMlPWHTYMsiaVcAviXtYTF/4TrM0qRrs0Vxnp343w1rOKe8I+7NGKLVG5atDtHRDRMuu14ReqNS7jQb1iBoOLpzMeZGGeI8940uxJrBTZEulgxuNCHh6y6QRjUaGz3I+E0YDeVRM5I0+b1xwyiNc2+MeWqKuTcZROoyKJtsHTUZlE03OpXba6sHN0FrQrPhlCpVBBWTh9q2ceP7SWIxF7aYJQFVMImWJOrEM3KSmPw8sOOSRP2FRVBX/L6Dx4pd0WEevH6uWCIyGhbAi754Buri84bz5Gk7xt8P5tbIeD4oPuH5qfjLfK+A7/NM/j5wCI3iubNQ8RXL9BR/YwGn4otZnxHP89wVz/PxBd94lqDiB9obiuexE4pvWGes+Bv1keILOjSKz9gse8VQUeN5u1cMqlceDHXF8EF17zPoo1qxXljxBe0xxWd0oxWfzPkW8Rd2N+v1UhPncSi+4/x3xTdMkiu+oj2s+BvbvxVf8D4VxSecFqj4C/uxBF8m2ieKH9gfr3ge0KJ4niuo+BujPFIIVfh+SsVnvH9C8QnnBQs+c0eS4rlLV/FcRKj4hveLKL7iiB/FF6Pf43WxGUuyrhjqzAnn3UtKP02zHkIt0xO+xe8VUtWp4f0ZUpOQbhyTKR1tKZvzP/h36eJ5pTEXaQLB0d03E1djqK/iw6ZYtVVx8HKOvm/FUe4yRsbC5dfRcczxUVn2EKeoOP5C3MaKuyTHIvKKmzDHoBXfgSG/zgNOcmxHb1hpKm+mcSItvveG7ZVZFzAd37JmeJqYha//8c+//PHLn//xt1///vd//fH7b//584///99++/3n//j9t//6x1+//dO/fvnLP39e//X/AQ==);lineShape=1;strokeColor=#FFD966;" vertex="1" parent="1">
          <mxGeometry x="57.97831379348281" y="522.947760575666" width="427.043430069702" height="83.05137959297599" as="geometry" />
        </mxCell>
        <mxCell id="9mXArXxCdhET-pIko4T6-51" value="" style="shape=stencil(lZtJkt42DIVP01sW52Gd4R6uSifuimO7bGe6fcBqU5YA/p/iXQ98EkhMDwD1lH74/PbNx+en6D9/+fTh9+e/X3758vYp/fgU48v7t8+fXr7IT0/pp6f0w68fPj3/9unDn+9/ef3945u5cv70x4e/5hP+ecWF6HyaqOj//fqX6uLrX35+Bbx7eX8GeBeCBoTyGNBdMS8I4/H65vwwAsHziwvq+c21/Hh9ct1f1sfoBmw4ufmv8/rmSn+8Prp+XZ/kCbi+XeXP3vWK66/nn4fzcD6y/rrf0lyC8xH5+2V9zS6CvvLS/rG+O+9JX/0qf4suwfq2rOVYX10G+cXe6nV9R3sTg/76uAXo3sUGgOjyVcM94omG7PLQgA5bFgv2VQMG7WG4pkRKzpPRhWUzJ8BXv94D7KaTa2R2aXnhAciukl0Xs+nCgOqSOta6bH0PGGbTDV0zefMG8R0QKQWjh+YyiCSxQW+6rYPeA/JGpEzhq7im3tAxXiT599VB+3ADTCONZZsLMAJmhBy1xwkgwxuymEYzAFBcbjqoCqDAsRa/1HQGgE+XtBGpUJoq2h8mAGyp9HUmZwDEpRp2IsEp1bh7AwGMT98ByopC/xdQXTV6qGDekmyi2QMFgTpcLwYAemgisXlDB1uSfDbMphEgPm0UR/mhlY15NzCN1jZ6oOgtOVOF+wkAPbSxnncGgE/3oHnejeK6yUDTNMCWZoKqBgCnJPnGikQZSPJNNnqoxIX7kvgE8PCG4V1R4X64BMc6ogtXWxIhCwEMH57kBPYwiq4YRPeD9lDcuIokDK6DHkbTlL55TCjjyMoHBxU2A6YxqhZJSDEpTgCq6ikZE/swbEZyUiWABAFVBwQkJ6K4dPUHSfWD3hC1PwhdyaS4oMO9UC5KimKtVQES2pL4gyqWomefFsJ23UPoGJfEpxXXCMyXJnEOGkDMWKqFdPVpKViJrEswViRxAii2Fs1bBdDhlGZFZUQiPUiO80akCJuWtKtsSYocqoEksTdV1qcVbfeA43kHIGIWrUEXugKgRkAZRtNxMag9oOocN5shsAeJEe2qh+4GSRR1DOiYsKTyV1vuyK4kBHn9fPLnbIhJRxadjQpkPVU/w8pDtD5VfZ7yAGr15NVJOSmMiFUyHGMW+1RdmTpaABWOKBqVTQBV6l3nthC5ym3Gl28AeXHHk2tSx222iJRIBVs+EtSz6RlWCC/h0Os5gBFAkqvpGhLHkDNJJqZS9gxh/fu8B1BcMHWDADyYhgCiN8dKm7ZRm3syYv2K9sxjoFMKmsXMv7BIUVFo1ttR3Z0iJK2PpoWDNGy6r+LPizU9Wj+iWl+p8ZbsfjMdaNLdSdEJheyp0aA1gHZqAQn7txuRMjun2bPYabs5VDMCoLxgtXbvzRuGxN5c7diDvdluOjFAu06+60Nb5+w0iQmGvwifJ/e3AYb5iw1hY1WX/zNGMl8IUXO8jqOA717fdD3S1zDnUZ5SDYDmBidCpeObBnTWJVtGSjtTuZr14PmLempR64ljC90JV30ltDjhU6rDGDF4CV9TfNZjoEgmi3uW3/BHXp+95lIepySWz3osEHLayAMFtuXXHlvzuWzkIf7eNI3yS8D9+r6RB/Q164+g10PmKGEjD40KTR178/yk+6Ksr1K0/fvVXtivb6vFfwRQTEtSYWbVccHioAYz20V/r0mnPVkP8lczPMrYJqtmZpFdpCK/6S5ZxuqpDk09KtpzC4tcfYvPjTotyYzjsEnR7AgS2WKzE0geZZvOT0fS0YaVhwqzbueVeJejB+0vHbs+3Qy9btZnMzRG/+rF9KKR0PSu82ng0f3whlgm1PBsp9vbLtQzPS57nBqUxKZH1k2l6TTcTlejyhurHlUDJI9js7tpmiWJkPxYAGoCnBsG6tHXxOBopwceOpipncRWpN/+SC1HbEk455uvUBdf+qIvjwBFRaPEs5mu6XHrmJ/muSr+GnHILKpWCaRzk0KMSe2hj3Vf65F9JzWgzTi7H0HHpGle1OKXGuPq1HLQlHV6M3O+gTeoNmO7wWMKOxgUAIlkR48DmfVmuDmwNNiMT7nTshnQDk6edgQ8vnfIPHjIbMfYg4fMdlA+cMi8GcUP7Odshv0M2FwnGDh12FxYYMVtrkQMZJ2bSxdjdbUe0Uh9reMGYC+O3ADs1ZSBI68ydiIRwN6WuQG0nUg0nLEXeG4A2dwpGthO2NwpugEY/jZ4FL+55jRW1+lRhbcRiQD25tVYPrgHGHYyBo5PsyHpp1z/qCxXMt0ioklaN7swle2NR6SxJnvnuEGAru8hC4Dm0um4Nn1KvIGnZaraFnZA8TuZ8vMOYPopo/Bdba+Z6ATQNdWuGZMAKt12brpEn/yaemw2DPCUJpoiSBgTdWFi0ORYqhDilcG0YebNDerrdqPpcDde0+YduDdtOlV3gKzncXd7iLpdPu9e0R5M7dc5Q3TdbPhGNPdJTjcXhTaSgxZ9sX1e8iaH1vWJMDQioVFHGOFbxNS9Lr4rE0SviYwQD6KstiALeDPNrL/5cMGu50tgZv1Mdt8jf85YZnjTvOe7TV77mERwug1hPsRJcc13HqxXsVRiH12tDev0jvV8rdteOipYL5hKMvBnFMVEOTQfU4105FLmM6XBg25z+vwVjv3OqiOPCkfIPz2f+h1RF/JjUZhH65W3D7xSFqJu8czBNX30knQZHwJnsaTtTd5JrbYNIGH7eCOSxNSbHKM2zd+w2FOdU2KIKVZtoXAmNnYxG5L8hu/8wO8eID98+57w15d3714/Rzz/X39/KH96/XYx/fQf);lineShape=1;strokeColor=#FFD966;" vertex="1" parent="1">
          <mxGeometry x="21.986337496447504" y="618.9694559460359" width="74.9486394519331" height="24.05232901666227" as="geometry" />
        </mxCell>
        <mxCell id="9mXArXxCdhET-pIko4T6-52" value="" style="shape=stencil(lVnZbhsxDPwavxKSqPM5bf8jQJzGaBoHTnr9fSkYa69G9jgB8uDYnJVEzvDQbvTu7en+dbsJ7u39sP+x/bN7eH/a6JdNCLuXp+1h926fNvp1o3eP+8P2+2H/6+Xh+P/rfbfsn37uf/cn/D3iVAzR/9y/4xde9PjFt6P58+5lZR4ljuZRQrtunsTXwbyKFmYey7iZID4x+9RG+ySF7D5JTqN9k+Cp/fj8EJYnXLEvfrTP4qh7yujN0CTR/ZQ42GuQptftbXUd7asUat/G/Uel5y3SgA118cBF+yZufH4KEol/vBc/Hjilha+XAXFaoUqqBJAluwGQg6gjgJMHTwCLCvGRCcqNTspVPBGBSVJhS42vkPHQJVBVmgrLKMuSpJItqVtodgIUUeJWVamwpSaeuFWz1NFL1S3fXAY0aXkEeKplo3JLCKjES9GOCCsoZWtyoqOXapTE0oWxNSGgsBXqBUAlcTAyu4YAmjEyKq4DCDWKk+AmADlDsYoBbk0Lfy8DsqSCgBQJoGJarZnqwahWwEtFPNlSDVIjAhqJtG0gjXqovBLaz0kRwFZoHiXaHK0lrUock0BTcZkATgpeARi9DZBghSjKAQ1WSNRL3jlxgDBPkzxjS1TYU5FMBNEPMdLVHHcD4ADQJN4IREQAE7XtuECbdPbDNYT3uEQhEupeVAR4DoBEY8cKjE1WcRIGwhORdsCo6r4mY9NUFo1+VEJZtCGAZSYDNIic0u7ZjoiKCDS7np24BjBu1ElCektzyL54Kw1AaW88f3dVg1utyDAvNazU5jfKpYZ9urmBxsHa/klynrs1T6IubEsVE9MHNKoBl2BN2acB1U6tGIhIRG1VCxoaCzXrsaz0w7zXucHq4qkFW7Evk8iVOX+fWs3LgDSxz2YOEofeO8Oh/dJqfrAD6gASh3P/vwawLm5qyjqA5MocF4GtDs00OveJHUDikN1U5QxAuNRbV50AxK0pT6XdAOzyQBevfxTgcXztAFLao5FvosaNESJP1GDki8Z+6BMbHYOibQDabz6C62mWXAEyG+UKXpr03pREus9+0K9bZSeRtukSz5Col8Lk1qp0aA8Rq6K1/CyRhbC0bKuBl92cBLewfzVSZ7KCLxJHAVniYdnbGzVGt+a2pOfLgICBy7xh8naGMbdaWiiEGgVvNkzkLPElnDhM45GQexK0TdiNXSJgxoiJFpOAXbGJoxJme+x8NC9XBNfsR//06zr+/JFDIdMx1GML7W8wAq99jCKsdvpJBHTec8uQfb4bZt53WHKUFsFp0lMJ3ByuYpdbhCvmUDA9FaPD1ssvDeUVc8jqjl5TO7zacrSb9XhP5WjZm1jA+9KA3Y2jF3kBU7OjEgk4QTmacT75tuKmuX04vxh53D0/H9+rrH/HFyn21fEljH79Dw==);lineShape=1;strokeColor=#FFD966;" vertex="1" parent="1">
          <mxGeometry x="449.1360307912041" y="602.1313910403801" width="49.32466830809881" height="29.237124706739678" as="geometry" />
        </mxCell>
        <mxCell id="9mXArXxCdhET-pIko4T6-53" value="" style="shape=stencil(lVfLbhsxDPyavRKUqAd1TtP/CBCnNurGgeP08felu9B2Rdtj5GbvzqxEcjiUJnl43z69babI76fj4fvm1+75tJ3kyxTj7nW7Oe5O9muSx0keXg7Hzbfj4eP1ef7/9nRGnn/9OPw8f+H3zIuVuJ5Zkf/MTxJx/vfg64zf715XeGGKOuBDoMCAoFQcoVKJtwmpUUkDIQpxuU3IlWIeCZUqINRAOq5gmwxym6BCScYk2Qr1NqEJaRkIOVEEQQdmYh4YJZGAPbVCHAeChcVgCS1U2kjIlBSkKVIZ86pMFZQ6t572hZAog0KYEtK4QmskCRDEi8kIDRWC6sUCDYRQfDcYHilDfBGaCQMEwNQcPpOCGlyowpRVQXsyiYs3UAb5CdRGYWuDFUv9awu+UgPxKnEY8YUU7Sf0dKwICRFyb8QVoYKMhuYNTHEvx9gNcZUj1JkmCrclK4IA0VlWoyMI7ExbIY9pNRkVtCVTgdNFpQwIwVzbCU+pobSm3oerzlHUysGndeWB1/2IYvIrJKBV6cpchRCRG1F2IRfKsJeDizjBqll0o/+2SLGh/XhV2IoAb6IYv69KCQwE68QxXmuEALzlKh55hR0VRpXWRAoWsBnppmZlmKFSutkuQxOfLaq9HrdUMjGosc1UGQ07KzQwm4Gu0+w8U0GnJb0g8L206qgLydDjL03YnkDhme7dke1uL7s5boNaQStr98OlDFRABBcBZBLQaOod3o60AN76+XVJDx5R3LtqCZYqymbs5ex47kP3lpNGcXhBR0cbkM3hkY2atWv8BN7CY/99CQAvV+JF+NRfr/KJ5Fz8HLB6odn3yRvOfbz9+H+detnt9/NtbP3eX7/s0Xx1k8e/);lineShape=1;strokeColor=#FFD966;" vertex="1" parent="1">
          <mxGeometry x="493.40031624580706" y="623.1309465739721" width="9.045024350361018" height="16.22211776289987" as="geometry" />
        </mxCell>
        <mxCell id="9mXArXxCdhET-pIko4T6-54" value="" style="shape=stencil(lVjLchwhDPyavaoAAYKz4/yHq7yOt+J4XWs7j7+PqCnGg9jpOLd9qGdAarUaDnzz+nj3cjwE9/p2OX8//jrdvz0e+MshhNPz4/FyetNPB7498M3D+XL8djm/P98v31/uWmT79OP8sz3h94LzVGoDBfdn+UHILz98XcKfTs+b8EQx2vC4H16IZQjPFP1+uPfkeIhPlAqI5/53j49UHIjP/e+PeJH9+OAoVLMeH0B8pJDNfn0C8YUim3QyyA97qsXEBwbxWq4x/5rhAjbMuqAwAgpcUfQ9IR3QSgYYEZlkLAEzefSGYmvAmRx4Q+Ke8xWQqIIspUKuWADnfUBmcn4EKO9AnbNQTRYQAUAClWIBiEkittKhdm5d78xAYdyDV24DapRIeeS2kEPxYqUikIBero7cmCOlFujlKpTG9egDULwSmc3zBfCuVqtFmQQkVOONFvlICZRMAXWsgMoHgzd4t+5wQ1SHX1HGPcREGSWpWkFKEQqGZtW8IftO3T2AH/eQU8/DXp15TFPOlFAhck/7CmDKaA/JzsAklFFaU59ia1prl5A9gB+5qkJbgMI0wLgHHRUOA+KYVi+9MrubHulauyDsZnUstMoser5Y2Xb4+ZMIOxK0YU2gqQEJGM2N2WayecqoZlPv6IoQUa+1p4cq3xRgXFMM5PGakmGqOgJg15qIjTxKFU6qppKmeSIcnk2GjcXLWFf/G+AmU6XtCUpdEonxtB56ksLEY+GkQvIV121jB+i0y6AOUqwAVE0rEGJJtg4ben3SMjQGAzKJsyqmAAFpai4mWgCy56rscVoSgzTNxkoByJRk1wu7Agps0ub1xALQREzrwNwAkJA1+zk2tTIe8Tu5zuYVkLvN33PEZoQ2MUcWWuswNkTViYgAoRNh5TeeV1F7dKSrtghy9SxdrTc9ilruw+lshIlBluazkkofOsrMhzEFoNPVldOe61P4k8dJNUvIpM/nVQWgA+t8IG4A0NPziVv3UJH0TSd6B28ApgsDTSq8Api8WO1KuBNvn4/72VuFSbnv6Gq8NqchRejTZSeezUhXxYHx3tiYQAkMt9lj4CuVOd5B3zatR1nu4HrMfn2BnmfKp1JWYH1NvbyDFmniw3r0/hzd8PXXP8P1w8dN28Pp6Wm5qNv+b2/m9KflVo9v/wI=);lineShape=1;strokeColor=#FFD966;" vertex="1" parent="1">
          <mxGeometry x="96.23268509877516" y="633.0139426345395" width="40.51544749039431" height="2.9635908410557477" as="geometry" />
        </mxCell>
        <mxCell id="9mXArXxCdhET-pIko4T6-55" value="" style="shape=stencil(lVfLjtswDPwaXwmJEvU4b7f/scBmm6Bpssimr78vDUNuyMRT9OY4HGlIDkfylJ4+9i/vu4nDx/Vy/rr7eXi97qf0aWI+nPa7y+GqT1N6ntLT2/my+3I5fz+9Lr/fX+bI+enb+ce8wq8FF5mqzCgOv5c3gfry4vMSfzycbuKZqUQTL1TadnyKlJKJj4EibwOy/m0JxYwBnSQYAOMdSvaUuFFN24BaiC0gyXjzENADpWoAOZIASjEECjYJEUqgD71TsYCinDJIolGwde2VGHCqQtlm3RuURmVKlpKSbEAbRddrHtAjAAi15AEBNKIkisUnjcpaIrGjJHgHbbXbQcuAcgherq1T7pBSdYBCrcCkG1tApoJ2KFSyBSRilMPa1xXAJBVIQ/twB2hISzpywecQACWVd7HSaEIdNK6FkeIKaJTBDgqoThpxkNzcwQESddAHzaE6LRUoDa2S8xkd0QykoX3wAPUR1Dj1JZvDjVVtiallv0VGdpzuXKDCMulANOczggdCR058I5BXzkPtfCYMM9yiFLsVUx1Tu5V0cDOK/f6/AVWrbvugSwgCiJ9R4WFVDwHSKdo+ZCEBfp9VrpZSqkNeW5eHYpPmOpZ4fI6qSdgJinioM7Gdh6hFAtpjT0jvT4IIjbNgjV+V8jA+jFFZhTeO+Y1wd2uo1ODqwWZbKAJVB38sZMpAQNosW3uGBpzunGXgNzrlDjW1Y3REUa0uPALu7X51ZHJ6h23FxTOw0fmW7ePRVerft3J9+Hulfzscj8sXwe3//hNAXy2fD+n5Dw==);lineShape=1;strokeColor=#FFD966;" vertex="1" parent="1">
          <mxGeometry x="130.1272528782374" y="628.1246570393323" width="10.250046749186367" height="12.040229257510646" as="geometry" />
        </mxCell>
        <mxCell id="9mXArXxCdhET-pIko4T6-56" value="" style="shape=stencil(lVjLbhsxDPwaXwlK1POcpv8RIE5jNI2DJH39fbl1tV1S9hi5rdecFUVyyJF2cvP2ePey30V+e389ft3/PNy/P+7k0y7Gw/Pj/vXwrk87ud3JzcPxdf/l9fj9+f70++VusVyevh1/LF/4dcL1RqEuqMi/T29Cphj+vvl8AjwdnreATNw9gBsARMrZA/6teR7AFMUDBLjUGnH0gJQAIFNLHpCBS02oNA8oYNMtUJ5WqABQNQ9uD40aA4BQs4AoeAUmsZmOhQSsUArVYgGNIghridQsQJg6cCnr96xLIhRAprNu2gG0+OQyIHXqtvhEA90BoBDbxCUeuzoP0E3b0khCKQMAEwcLyNTBClKpsAU0ShEA0ojJAGjcUOI0TcEBKjHYQ6x+hcJUEWBKXNEmAFyK7BlXOhWQaaVLtICaKIFaCsm71JgS4EMIJHbTrVABiYtUbafs/Yq976ystYI8Gv5uFkggRjw51EYtXrB3G9bm3wB51FvL/651h+0tE7T1J9AveFB3TUClCto2U7YloY0fESeMklzttaXC+Dfrf4vQH52Esz3iJYXm/SkgXzI4uNlvBPFMFIqPZ0bNkcR+fxnV2N6OKK0HhvZsGan1VlGjo+K+X0czvmDvdILyRVDXmupfxwnwP0z+dOj/Oh03fEQyRNnh+IUbEHtN0RMcfmu3We0D5AuPYb3WT6MC6plHd9o00ADir/FxfMT+h4nvEeqPj9rXEe11xAh1pGSpWb6oBmNgH2QIsnXoJTiHVVS6COkcRnooaMHbLSySCs3h6Gs6rbs6D1jFzFbegKRplKqTN7omWEE14izRBNG++CjpG9hHuyeaSqqKZGYcDqyAOMTzeUD2pacarACqadTFzj6txg5mk+Y127Au7R5kWiWfP1CE0b8vyf3gDnYNlrceKNy80YLvaIXuo6QaLCCCzhMWavGafYdMcIDUStFuWRsGqIs60S3ABrYcG22HxAJwPpdqS0b208GX4WF/Plkr00ANzUd3LOjmuwGGxJwvHxgKtPl2g+GAVfsS/PeR/92fgwI8c/SZxdfsi7UX2IfUvln7DAXa5oCxjih4IjgDaFDyzh4FLQng0rzlEOEMnGO6jFHskk9awoCpKpYrrw+V3bVLtesAffh/h/dweHo6XQFu//d3fvrqdF8ot38A);lineShape=1;strokeColor=#FFD966;" vertex="1" parent="1">
          <mxGeometry x="-27.78207450278478" y="555.0744525795722" width="46.63464669820678" height="11.729503739764368" as="geometry" />
        </mxCell>
        <mxCell id="9mXArXxCdhET-pIko4T6-57" value="" style="shape=stencil(lVfZctswDPwav2JIgAf4nKb/kZk4jadpnHGSHn9fqI4UAYq3kzdZ5orcxeLgTq6e72+e9jtOzy+n4/f9r8Pty/1OvuyYD4/3+9PhxZ52cr2Tq7vjaf/tdHx9vD3/frqZVk5PP44/py/8PuPKoCoTitOftzdUxr8XX8/rHw6P6/VKXN36nKlUAKjExQM6DQGATLU7AAvVdhkgjbKnwINyAYBMqg4gAo/Enbo/kih1QNpO3LNXVaily4BsYQgApcQAUKh5WatxUHCktAFYHDpQKVHxKjWmDo5UEgl7QCMBpI2ielnboA4CV0314QBd4A7T9/wOXUlA4EadnTMDRqIEzDf67P4FkCmhHcybXqXBVID5DDDCDgUfaURZjVVHAI35YKwEk04BoNSA+ezELRzJDA/KjImoPtI5WSBAqHVQKnELBSS0UeEIyICEFuIRWSdgV+VIYjRYyQzwJvsq1ApkMkAP3hDiDDmkQDrDyJlKKeyw1IWPAeYEv4NFpiN/55hBuhTDS2biFgGKdmhzVVlxaKD0TW7eJPUAkR6bOmNxqKjev7t5laQMELaFBEAjRYWmz0m/siujJK1UNwkhiLX5e5NyA3QIi9PQDQAEQnucNgxQUAZ9FmAtJfkcNcczMFPNGwDD1m5tUf14Yj2ogzhY400BYI4HKuXNDNfTXKA/DlwcmFqBKSqUvagN58/G27XCMrbMFcvw02Fbzyapn5bEEhABaqxiUmbvXpK0bGZKZG0bm7M/kr1RNI9pJG2yIacKx9HEWDU05paokunWUJhrHBwE9gZZMmWhAAdEWz/89zOs26KxpWdoazOB+PKSYCOxzBw5rEf3hsJUa1iPRpJS5oq++j5aX2PFTnAytCwJjkiwmk53t6h/Q3c9G6nCTWwW4NL66vniJvjpu+d/19vD+0X37vDwcL4nr/+PF2N7db5Uy/Vf);lineShape=1;strokeColor=#FFD966;" vertex="1" parent="1">
          <mxGeometry x="-26.244324360756764" y="556.1568994830479" width="12.282233581900073" height="20.654191067209013" as="geometry" />
        </mxCell>
        <mxCell id="9mXArXxCdhET-pIko4T6-58" value="" style="shape=stencil(lVfZctswDPwavWJI8AKfc/xHZuLUmjp2xnHS9u8LVUPbhOTt+E2isMS1WFJDePjcvnxsBnafp+Ph5+bX+HraDuFxYB73281xPOnTEJ6G8PB2OG5+HA9f+9f5/eNlspye3g/f0w6/Zxxncm5Csfszr0QK8d/C82y/G/dX9sFR4s7eM7lyGxBd268BmCkFANCIeg9cKQJAcpR9BwiFQgWAbEOKgYq7DcieUu0A6rMmANAccg8oVIGHUsj3HnKlDDzUQrH3IJWKAIAWUTpA9TBp75ylRg0kHriQVpQzIJGgmLJNQtNCMVWmUnpAhewTIRYLEFBXCYuQKtUMOickzgIQ+0psRTwDNEjEDU/Sc0PrlkAfio6c6UOkhDwsAUwBNE5DqiZphwGadOjpKpRRlWQBKDCHqXF9lSRTBUqmAQRvPTjQaa2J6bQCBHiY6N2TT2eUGQ+QobcnB6RvfUY9miCVAeMiEaOhVqHpxVJXPIhJueYX/M5oRmur4tUEZdAISW3mz2fQpQ7rCGXnYkiRvBYV8LhIAsmAKhMvygR6fTcgap/6rLOQAyMUlOAG4JsargOinYgUYdJ6MEtP8CjtHFsHKDn7kPR6ENEhlGxIrDOHrhtNVc7UiPDgdU2rm702AfBiMW6pHUi3djfpQpX0VsICOdQvYpMrVUCg1Hp5MYczY8XLwYuh1ztSNvZoe+1LiffYF6sSGg+QIf2cbTwVtGqqdbLVBPFoK6XfPzTJWLe/86L9f3t9uNzq38bdbv4puP5u/wJ0af6DCE9/AQ==);lineShape=1;strokeColor=#FFD966;" vertex="1" parent="1">
          <mxGeometry x="985.1394447319303" y="538.1453812408504" width="6.521162607778933" height="14.867564924124963" as="geometry" />
        </mxCell>
        <mxCell id="9mXArXxCdhET-pIko4T6-59" value="" style="shape=stencil(lVfLbhsxDPwaXwlR1POcpv8RIE5j1I0DJ+nj70tjIXVJeyfobS1zJFKcIamd3L09P7zudzG8vZ9P3/e/Do/vzzv5sovx8PK8Px/e9Wsn9zu5ezqd99/Op4+Xx+X368PF8vL14/TzssPvBVco9gsohj/LQmQqy8rXxf54eFnZc6YQLSARh21AjBSzBVTKEQAacTEAYRLeBkihbl1KkVi2Afp3rQaQ9QQQQw6UrEuFqQGXcqJmgy4adAKARp0NoAp1EENJVJMFdGplG1DVY5vplimDTFfNqwWUQg24VJVLzV6rUEQudQr2hBQogFtqkYLjUqMCXOpzv3kCCThA7V3eIqUG7NUhGzIPD2/bCxWb5kAREK9nitXZB6Cdrhlqzj6j+2k+Zar+Cuw7iVhtjoUte0fr/Km9FVqlhP1J9n46ZaBLjTdbf5hHeboNqL4YcaSMM5atRyzEiHLir0gBAehSOSfZuyRAZp29ajRoyKJAnN2tRpC11qla+zo22LJ3LM2f+ZM96wIOuFh7xiwSr2Kt94hFWnu9igPiRBn5WakeVZXqqxDD+1cVBBuvNjhs7/pfogIoymHGN1sBVZSAPmaI2Wtgb7ppj1TJlN2IEGEva9pebYaTYIrqTOFGhIw1kD2gdNg6WhqVdsastEWA6FmtlSAC2dQ6JogJ6GNouD1TFF/dV5nfGlvE3qtqKYJE6ETAlkmaGhR1Kv6Eqj0LiDMxdXtC1fIIrknqKOirOUdAuRDxM3MJo0vcnmjn7DfJpABwQpwtY0VXRCbtAI59GlUAJ6RB5mmfqIO8iZ/61R46RN0GIHPy2bAPV4JOgKqzQK/eCKiFBL+/trQE9H9V8DSHDe7vHzkFajNQdc+uBKXJo7xNe4EtTWuF8x8PsuI7gp7Y0HvlquPwmHtul5b/fGZ+bq8f/960T4fjcXkSr//3b2BdWt7Pcv8X);lineShape=1;strokeColor=#FFD966;" vertex="1" parent="1">
          <mxGeometry x="983.1348000675634" y="547.3724816694976" width="16.449115925111528" height="12.799608224835993" as="geometry" />
        </mxCell>
        <mxCell id="9mXArXxCdhET-pIko4T6-60" value="&lt;font style=&quot;font-size: 19px;&quot; face=&quot;Comic Sans MS&quot; color=&quot;#ffd966&quot;&gt;Coordinates&lt;/font&gt;" style="text;strokeColor=none;align=center;fillColor=none;html=1;verticalAlign=middle;whiteSpace=wrap;rounded=0;" vertex="1" parent="1">
          <mxGeometry x="520" y="619.5" width="77.55" height="30" as="geometry" />
        </mxCell>
        <mxCell id="9mXArXxCdhET-pIko4T6-62" value="&lt;font style=&quot;font-size: 17px;&quot; face=&quot;Comic Sans MS&quot; color=&quot;#ffd966&quot;&gt;Connections&lt;/font&gt;" style="text;strokeColor=none;align=center;fillColor=none;html=1;verticalAlign=middle;whiteSpace=wrap;rounded=0;" vertex="1" parent="1">
          <mxGeometry x="150.00000000000006" y="616.24" width="77.55" height="30" as="geometry" />
        </mxCell>
        <mxCell id="9mXArXxCdhET-pIko4T6-63" value="&lt;font style=&quot;font-size: 18px;&quot; face=&quot;Comic Sans MS&quot; color=&quot;#ffd966&quot;&gt;Energy&lt;/font&gt;" style="text;strokeColor=none;align=center;fillColor=none;html=1;verticalAlign=middle;whiteSpace=wrap;rounded=0;" vertex="1" parent="1">
          <mxGeometry x="949.6300000000001" y="560.17" width="77.55" height="30" as="geometry" />
        </mxCell>
        <mxCell id="9mXArXxCdhET-pIko4T6-64" value="&lt;font style=&quot;font-size: 17px;&quot; face=&quot;Comic Sans MS&quot; color=&quot;#ffd966&quot;&gt;Atoms&#39; type&lt;/font&gt;" style="text;strokeColor=none;align=center;fillColor=none;html=1;verticalAlign=middle;whiteSpace=wrap;rounded=0;" vertex="1" parent="1">
          <mxGeometry x="-105.32999999999993" y="556.16" width="77.55" height="30" as="geometry" />
        </mxCell>
      </root>
    </mxGraphModel>
  </diagram>
</mxfile>
